<?xml version="1.0" encoding="UTF-8" standalone="no"?>
<!DOCTYPE svg PUBLIC "-//W3C//DTD SVG 1.1//EN"
 "http://www.w3.org/Graphics/SVG/1.1/DTD/svg11.dtd">
<!-- Generated by graphviz version 2.40.1 (20161225.0304)
 -->
<!-- Title: TopLevel Pages: 1 -->
<svg width="530pt" height="293pt"
 viewBox="0.00 0.00 530.00 293.00" xmlns="http://www.w3.org/2000/svg" xmlns:xlink="http://www.w3.org/1999/xlink">
<g id="graph0" class="graph" transform="scale(1 1) rotate(0) translate(4 289)">
<title>TopLevel</title>
<polygon fill="#ffffff" stroke="transparent" points="-4,4 -4,-289 526,-289 526,4 -4,4"/>
<!-- module_1 -->
<g id="node1" class="node">
<title>module_1</title>
<g id="a_node1"><a xlink:href="TopOfVisualizer.dot.svg" xlink:title="&lt;TABLE&gt;">
<polygon fill="#ffdead" stroke="transparent" points="8.5,-118 8.5,-142 117.5,-142 117.5,-118 8.5,-118"/>
<polygon fill="none" stroke="#000000" points="8.5,-118 8.5,-142 117.5,-142 117.5,-118 8.5,-118"/>
<text text-anchor="start" x="13.1011" y="-125.8" font-family="Times,serif" font-size="14.00" fill="#000000"> TopOfVisualizer </text>
<polygon fill="#fff8dc" stroke="transparent" points="8.5,-94 8.5,-118 117.5,-118 117.5,-94 8.5,-94"/>
<polygon fill="none" stroke="#000000" points="8.5,-94 8.5,-118 117.5,-118 117.5,-94 8.5,-94"/>
<text text-anchor="start" x="45.5" y="-101.8" font-family="Times,serif" font-size="14.00" fill="#000000">modA</text>
<polygon fill="#fff8dc" stroke="transparent" points="8.5,-70 8.5,-94 117.5,-94 117.5,-70 8.5,-70"/>
<polygon fill="none" stroke="#000000" points="8.5,-70 8.5,-94 117.5,-94 117.5,-70 8.5,-70"/>
<text text-anchor="start" x="45.8862" y="-77.8" font-family="Times,serif" font-size="14.00" fill="#000000">modB</text>
<polygon fill="#fff8dc" stroke="transparent" points="8.5,-46 8.5,-70 117.5,-70 117.5,-46 8.5,-46"/>
<polygon fill="none" stroke="#000000" points="8.5,-46 8.5,-70 117.5,-70 117.5,-46 8.5,-46"/>
<text text-anchor="start" x="45.8862" y="-53.8" font-family="Times,serif" font-size="14.00" fill="#000000">modC</text>
</a>
</g>
</g>
<!-- module_2 -->
<g id="node2" class="node">
<title>module_2</title>
<g id="a_node2"><a xlink:href="VizModB_2.dot.svg" xlink:title="&lt;TABLE&gt;">
<polygon fill="#ffdead" stroke="transparent" points="169.5,-82 169.5,-106 254.5,-106 254.5,-82 169.5,-82"/>
<polygon fill="none" stroke="#000000" points="169.5,-82 169.5,-106 254.5,-106 254.5,-82 169.5,-82"/>
<text text-anchor="start" x="174.04" y="-89.8" font-family="Times,serif" font-size="14.00" fill="#000000"> VizModB_2 </text>
<polygon fill="#fff8dc" stroke="transparent" points="169.5,-58 169.5,-82 254.5,-82 254.5,-58 169.5,-58"/>
<polygon fill="none" stroke="#000000" points="169.5,-58 169.5,-82 254.5,-82 254.5,-58 169.5,-58"/>
<text text-anchor="start" x="194.8862" y="-65.8" font-family="Times,serif" font-size="14.00" fill="#000000">modC</text>
</a>
</g>
</g>
<!-- module_1&#45;&gt;module_2 -->
<g id="edge2" class="edge">
<title>module_1:module_2&#45;&gt;module_2</title>
<path fill="none" stroke="#000000" d="M117.5,-82C128.2453,-82 139.6816,-82 150.7425,-82"/>
<polygon fill="#000000" stroke="#000000" points="150.7645,-85.5001 160.7644,-82 150.7644,-78.5001 150.7645,-85.5001"/>
</g>
<!-- module_4 -->
<g id="node4" class="node">
<title>module_4</title>
<g id="a_node4"><a xlink:href="VizModC_4.dot.svg" xlink:title="&lt;TABLE&gt;">
<polygon fill="#ffdead" stroke="transparent" points="169.5,-6 169.5,-30 254.5,-30 254.5,-6 169.5,-6"/>
<polygon fill="none" stroke="#000000" points="169.5,-6 169.5,-30 254.5,-30 254.5,-6 169.5,-6"/>
<text text-anchor="start" x="174.04" y="-13.8" font-family="Times,serif" font-size="14.00" fill="#000000"> VizModC_4 </text>
</a>
</g>
</g>
<!-- module_1&#45;&gt;module_4 -->
<g id="edge3" class="edge">
<title>module_1:module_4&#45;&gt;module_4</title>
<path fill="none" stroke="#000000" d="M117.5,-58C127.9113,-58 148.5441,-49.5868 167.833,-40.4772"/>
<polygon fill="#000000" stroke="#000000" points="169.3642,-43.6246 176.8503,-36.1274 166.3228,-37.3198 169.3642,-43.6246"/>
</g>
<!-- module_5 -->
<g id="node5" class="node">
<title>module_5</title>
<g id="a_node5"><a xlink:href="VizModA.dot.svg" xlink:title="&lt;TABLE&gt;">
<polygon fill="#ffdead" stroke="transparent" points="176.5,-214 176.5,-238 247.5,-238 247.5,-214 176.5,-214"/>
<polygon fill="none" stroke="#000000" points="176.5,-214 176.5,-238 247.5,-238 247.5,-214 176.5,-214"/>
<text text-anchor="start" x="181.0366" y="-221.8" font-family="Times,serif" font-size="14.00" fill="#000000"> VizModA </text>
<polygon fill="#fff8dc" stroke="transparent" points="176.5,-190 176.5,-214 247.5,-214 247.5,-190 176.5,-190"/>
<polygon fill="none" stroke="#000000" points="176.5,-190 176.5,-214 247.5,-214 247.5,-190 176.5,-190"/>
<text text-anchor="start" x="194.8862" y="-197.8" font-family="Times,serif" font-size="14.00" fill="#000000">modB</text>
<polygon fill="#fff8dc" stroke="transparent" points="176.5,-166 176.5,-190 247.5,-190 247.5,-166 176.5,-166"/>
<polygon fill="none" stroke="#000000" points="176.5,-166 176.5,-190 247.5,-190 247.5,-166 176.5,-166"/>
<text text-anchor="start" x="191.3862" y="-173.8" font-family="Times,serif" font-size="14.00" fill="#000000">modB2</text>
<polygon fill="#fff8dc" stroke="transparent" points="176.5,-142 176.5,-166 247.5,-166 247.5,-142 176.5,-142"/>
<polygon fill="none" stroke="#000000" points="176.5,-142 176.5,-166 247.5,-166 247.5,-142 176.5,-142"/>
<text text-anchor="start" x="194.8862" y="-149.8" font-family="Times,serif" font-size="14.00" fill="#000000">modC</text>
</a>
</g>
</g>
<!-- module_1&#45;&gt;module_5 -->
<g id="edge9" class="edge">
<title>module_1:module_5&#45;&gt;module_5</title>
<path fill="none" stroke="#000000" d="M117.5,-106C137.4419,-106 155.0964,-116.6414 169.5654,-130.3492"/>
<polygon fill="#000000" stroke="#000000" points="167.3338,-133.0721 176.8367,-137.7568 172.3294,-128.1685 167.3338,-133.0721"/>
</g>
<!-- module_3 -->
<g id="node3" class="node">
<title>module_3</title>
<g id="a_node3"><a xlink:href="VizModC_3.dot.svg" xlink:title="&lt;TABLE&gt;">
<polygon fill="#ffdead" stroke="transparent" points="306.5,-53 306.5,-77 391.5,-77 391.5,-53 306.5,-53"/>
<polygon fill="none" stroke="#000000" points="306.5,-53 306.5,-77 391.5,-77 391.5,-53 306.5,-53"/>
<text text-anchor="start" x="311.04" y="-60.8" font-family="Times,serif" font-size="14.00" fill="#000000"> VizModC_3 </text>
</a>
</g>
</g>
<!-- module_2&#45;&gt;module_3 -->
<g id="edge1" class="edge">
<title>module_2:module_3&#45;&gt;module_3</title>
<path fill="none" stroke="#000000" d="M254.5,-70C265.2605,-70 276.7042,-69.6692 287.7677,-69.1779"/>
<polygon fill="#000000" stroke="#000000" points="287.9742,-72.672 297.7907,-68.6863 287.6312,-65.6804 287.9742,-72.672"/>
</g>
<!-- module_6 -->
<g id="node6" class="node">
<title>module_6</title>
<g id="a_node6"><a xlink:href="VizModC.dot.svg" xlink:title="&lt;TABLE&gt;">
<polygon fill="#ffdead" stroke="transparent" points="313.5,-107 313.5,-131 384.5,-131 384.5,-107 313.5,-107"/>
<polygon fill="none" stroke="#000000" points="313.5,-107 313.5,-131 384.5,-131 384.5,-107 313.5,-107"/>
<text text-anchor="start" x="318.04" y="-114.8" font-family="Times,serif" font-size="14.00" fill="#000000"> VizModC </text>
</a>
</g>
</g>
<!-- module_5&#45;&gt;module_6 -->
<g id="edge4" class="edge">
<title>module_5:module_6&#45;&gt;module_6</title>
<path fill="none" stroke="#000000" d="M247.5,-154C267.0726,-154 287.661,-148.0593 305.106,-141.0729"/>
<polygon fill="#000000" stroke="#000000" points="306.6055,-144.2389 314.4479,-137.1151 303.8748,-137.7935 306.6055,-144.2389"/>
</g>
<!-- module_7 -->
<g id="node7" class="node">
<title>module_7</title>
<g id="a_node7"><a xlink:href="VizModB.dot.svg" xlink:title="&lt;TABLE&gt;">
<polygon fill="#ffdead" stroke="transparent" points="313.5,-183 313.5,-207 384.5,-207 384.5,-183 313.5,-183"/>
<polygon fill="none" stroke="#000000" points="313.5,-183 313.5,-207 384.5,-207 384.5,-183 313.5,-183"/>
<text text-anchor="start" x="318.04" y="-190.8" font-family="Times,serif" font-size="14.00" fill="#000000"> VizModB </text>
<polygon fill="#fff8dc" stroke="transparent" points="313.5,-159 313.5,-183 384.5,-183 384.5,-159 313.5,-159"/>
<polygon fill="none" stroke="#000000" points="313.5,-159 313.5,-183 384.5,-183 384.5,-159 313.5,-159"/>
<text text-anchor="start" x="331.8862" y="-166.8" font-family="Times,serif" font-size="14.00" fill="#000000">modC</text>
</a>
</g>
</g>
<!-- module_5&#45;&gt;module_7 -->
<g id="edge6" class="edge">
<title>module_5:module_7&#45;&gt;module_7</title>
<path fill="none" stroke="#000000" d="M247.5,-178C262.7629,-178 279.3074,-178.5766 294.5027,-179.3383"/>
<polygon fill="#000000" stroke="#000000" points="294.6013,-182.8485 304.7747,-179.8903 294.977,-175.8586 294.6013,-182.8485"/>
</g>
<!-- module_9 -->
<g id="node9" class="node">
<title>module_9</title>
<g id="a_node9"><a xlink:href="VizModB.dot.svg" xlink:title="&lt;TABLE&gt;">
<polygon fill="#ffdead" stroke="transparent" points="313.5,-257 313.5,-281 384.5,-281 384.5,-257 313.5,-257"/>
<polygon fill="none" stroke="#000000" points="313.5,-257 313.5,-281 384.5,-281 384.5,-257 313.5,-257"/>
<text text-anchor="start" x="318.04" y="-264.8" font-family="Times,serif" font-size="14.00" fill="#000000"> VizModB </text>
<polygon fill="#fff8dc" stroke="transparent" points="313.5,-233 313.5,-257 384.5,-257 384.5,-233 313.5,-233"/>
<polygon fill="none" stroke="#000000" points="313.5,-233 313.5,-257 384.5,-257 384.5,-233 313.5,-233"/>
<text text-anchor="start" x="331.8862" y="-240.8" font-family="Times,serif" font-size="14.00" fill="#000000">modC</text>
</a>
</g>
</g>
<!-- module_5&#45;&gt;module_9 -->
<g id="edge8" class="edge">
<title>module_5:module_9&#45;&gt;module_9</title>
<path fill="none" stroke="#000000" d="M247.5,-202C258.408,-202 278.4041,-212.0196 297.7433,-223.5057"/>
<polygon fill="#000000" stroke="#000000" points="296.184,-226.6537 306.5476,-228.8555 299.8191,-220.6715 296.184,-226.6537"/>
</g>
<!-- module_8 -->
<g id="node8" class="node">
<title>module_8</title>
<g id="a_node8"><a xlink:href="VizModC.dot.svg" xlink:title="&lt;TABLE&gt;">
<polygon fill="#ffdead" stroke="transparent" points="443.5,-159 443.5,-183 514.5,-183 514.5,-159 443.5,-159"/>
<polygon fill="none" stroke="#000000" points="443.5,-159 443.5,-183 514.5,-183 514.5,-159 443.5,-159"/>
<text text-anchor="start" x="448.04" y="-166.8" font-family="Times,serif" font-size="14.00" fill="#000000"> VizModC </text>
</a>
</g>
</g>
<!-- module_7&#45;&gt;module_8 -->
<g id="edge5" class="edge">
<title>module_7:module_8&#45;&gt;module_8</title>
<path fill="none" stroke="#000000" d="M384.5,-171C397.5058,-171 411.5239,-171 424.6635,-171"/>
<polygon fill="#000000" stroke="#000000" points="424.9767,-174.5001 434.9767,-171 424.9767,-167.5001 424.9767,-174.5001"/>
</g>
<!-- module_10 -->
<g id="node10" class="node">
<title>module_10</title>
<g id="a_node10"><a xlink:href="VizModC.dot.svg" xlink:title="&lt;TABLE&gt;">
<polygon fill="#ffdead" stroke="transparent" points="443.5,-233 443.5,-257 514.5,-257 514.5,-233 443.5,-233"/>
<polygon fill="none" stroke="#000000" points="443.5,-233 443.5,-257 514.5,-257 514.5,-233 443.5,-233"/>
<text text-anchor="start" x="448.04" y="-240.8" font-family="Times,serif" font-size="14.00" fill="#000000"> VizModC </text>
</a>
</g>
</g>
<!-- module_9&#45;&gt;module_10 -->
<g id="edge7" class="edge">
<title>module_9:module_10&#45;&gt;module_10</title>
<path fill="none" stroke="#000000" d="M384.5,-245C397.5058,-245 411.5239,-245 424.6635,-245"/>
<polygon fill="#000000" stroke="#000000" points="424.9767,-248.5001 434.9767,-245 424.9767,-241.5001 424.9767,-248.5001"/>
</g>
</g>
</svg>
