<?xml version="1.0" encoding="UTF-8" standalone="no"?>
<!DOCTYPE svg PUBLIC "-//W3C//DTD SVG 1.1//EN"
 "http://www.w3.org/Graphics/SVG/1.1/DTD/svg11.dtd">
<!-- Generated by graphviz version 2.40.1 (20161225.0304)
 -->
<!-- Title: TopOfVisualizer Pages: 1 -->
<svg width="1945pt" height="552pt"
 viewBox="0.00 0.00 1944.94 552.00" xmlns="http://www.w3.org/2000/svg" xmlns:xlink="http://www.w3.org/1999/xlink">
<g id="graph0" class="graph" transform="scale(1 1) rotate(0) translate(4 548)">
<title>TopOfVisualizer</title>
<polygon fill="#ffffff" stroke="transparent" points="-4,4 -4,-548 1940.9443,-548 1940.9443,4 -4,4"/>
<g id="clust1" class="cluster">
<title>cluster_TopOfVisualizer</title>
<g id="a_clust1"><a xlink:href="TopOfVisualizer.dot.svg" xlink:title="TopOfVisualizer">
<polygon fill="#fff8dc" stroke="#000000" points="39.0928,-8 39.0928,-500 1928.9443,-500 1928.9443,-8 39.0928,-8"/>
<text text-anchor="middle" x="984.0186" y="-484.8" font-family="Times,serif" font-size="14.00" fill="#000000">TopOfVisualizer</text>
</a>
</g>
</g>
<g id="clust2" class="cluster">
<title>cluster_TopOfVisualizer_modA</title>
<g id="a_clust2"><a xlink:href="VizModA.dot.svg" xlink:title="modA">
<polygon fill="#add8e6" stroke="#000000" points="501.4443,-222 501.4443,-350 571.4443,-350 571.4443,-222 501.4443,-222"/>
<text text-anchor="middle" x="536.4443" y="-334.8" font-family="Times,serif" font-size="14.00" fill="#000000">modA</text>
</a>
</g>
</g>
<g id="clust8" class="cluster">
<title>cluster_TopOfVisualizer_modB</title>
<g id="a_clust8"><a xlink:href="VizModB_2.dot.svg" xlink:title="modB">
<polygon fill="#add8e6" stroke="#000000" points="874.9443,-328 874.9443,-456 944.9443,-456 944.9443,-328 874.9443,-328"/>
<text text-anchor="middle" x="909.9443" y="-440.8" font-family="Times,serif" font-size="14.00" fill="#000000">modB</text>
</a>
</g>
</g>
<g id="clust10" class="cluster">
<title>cluster_TopOfVisualizer_modC</title>
<g id="a_clust10"><a xlink:href="VizModC_4.dot.svg" xlink:title="modC">
<polygon fill="#add8e6" stroke="#000000" points="626.4443,-276 626.4443,-404 696.4443,-404 696.4443,-276 626.4443,-276"/>
<text text-anchor="middle" x="661.4443" y="-388.8" font-family="Times,serif" font-size="14.00" fill="#000000">modC</text>
</a>
</g>
</g>
<!-- cluster_TopOfVisualizer_clock -->
<g id="node1" class="node">
<title>cluster_TopOfVisualizer_clock</title>
<polygon fill="#cccccc" stroke="#000000" points="278.4443,-146 224.4443,-146 224.4443,-110 278.4443,-110 278.4443,-146"/>
<text text-anchor="middle" x="251.4443" y="-123.8" font-family="Times,serif" font-size="14.00" fill="#000000">clock</text>
</g>
<!-- struct_cluster_TopOfVisualizer_myMem -->
<g id="node8" class="node">
<title>struct_cluster_TopOfVisualizer_myMem</title>
<polygon fill="#da70d6" stroke="transparent" points="350.9443,-48 350.9443,-336 447.9443,-336 447.9443,-48 350.9443,-48"/>
<polygon fill="none" stroke="#000000" points="351.4443,-312 351.4443,-336 448.4443,-336 448.4443,-312 351.4443,-312"/>
<text text-anchor="start" x="357.9478" y="-319.8" font-family="Times,serif" font-size="14.00" fill="#000000">Mem myMem </text>
<polygon fill="none" stroke="#000000" points="351.4443,-288 351.4443,-312 448.4443,-312 448.4443,-288 351.4443,-288"/>
<text text-anchor="start" x="358.3477" y="-295.8" font-family="Times,serif" font-size="14.00" fill="#000000">read port _T_3</text>
<polygon fill="none" stroke="#000000" points="351.4443,-264 351.4443,-288 448.4443,-288 448.4443,-264 351.4443,-264"/>
<text text-anchor="start" x="393.3374" y="-271.8" font-family="Times,serif" font-size="14.00" fill="#000000">en</text>
<polygon fill="none" stroke="#000000" points="351.4443,-240 351.4443,-264 448.4443,-264 448.4443,-240 351.4443,-240"/>
<text text-anchor="start" x="387.5063" y="-247.8" font-family="Times,serif" font-size="14.00" fill="#000000">addr</text>
<polygon fill="none" stroke="#000000" points="351.4443,-216 351.4443,-240 448.4443,-240 448.4443,-216 351.4443,-216"/>
<text text-anchor="start" x="388.2856" y="-223.8" font-family="Times,serif" font-size="14.00" fill="#000000">data</text>
<polygon fill="none" stroke="#000000" points="351.4443,-192 351.4443,-216 448.4443,-216 448.4443,-192 351.4443,-192"/>
<text text-anchor="start" x="391.3926" y="-199.8" font-family="Times,serif" font-size="14.00" fill="#000000">clk</text>
<polygon fill="none" stroke="#000000" points="351.4443,-168 351.4443,-192 448.4443,-192 448.4443,-168 351.4443,-168"/>
<text text-anchor="start" x="356.0098" y="-175.8" font-family="Times,serif" font-size="14.00" fill="#000000">write port _T_1</text>
<polygon fill="none" stroke="#000000" points="351.4443,-144 351.4443,-168 448.4443,-168 448.4443,-144 351.4443,-144"/>
<text text-anchor="start" x="393.3374" y="-151.8" font-family="Times,serif" font-size="14.00" fill="#000000">en</text>
<polygon fill="none" stroke="#000000" points="351.4443,-120 351.4443,-144 448.4443,-144 448.4443,-120 351.4443,-120"/>
<text text-anchor="start" x="387.5063" y="-127.8" font-family="Times,serif" font-size="14.00" fill="#000000">addr</text>
<polygon fill="none" stroke="#000000" points="351.4443,-96 351.4443,-120 448.4443,-120 448.4443,-96 351.4443,-96"/>
<text text-anchor="start" x="388.2856" y="-103.8" font-family="Times,serif" font-size="14.00" fill="#000000">data</text>
<polygon fill="none" stroke="#000000" points="351.4443,-72 351.4443,-96 448.4443,-96 448.4443,-72 351.4443,-72"/>
<text text-anchor="start" x="385.1685" y="-79.8" font-family="Times,serif" font-size="14.00" fill="#000000">mask</text>
<polygon fill="none" stroke="#000000" points="351.4443,-48 351.4443,-72 448.4443,-72 448.4443,-48 351.4443,-48"/>
<text text-anchor="start" x="391.3926" y="-55.8" font-family="Times,serif" font-size="14.00" fill="#000000">clk</text>
</g>
<!-- cluster_TopOfVisualizer_clock&#45;&gt;struct_cluster_TopOfVisualizer_myMem -->
<g id="edge14" class="edge">
<title>cluster_TopOfVisualizer_clock&#45;&gt;struct_cluster_TopOfVisualizer_myMem:_T_1_clk</title>
<path fill="none" stroke="#000000" d="M278.5026,-113.5277C287.7188,-108.3043 297.9582,-102.169 306.9443,-96 324.6402,-83.8518 326.0438,-66.5748 341.3313,-61.4723"/>
<polygon fill="#000000" stroke="#000000" points="342.0529,-64.9042 351.4443,-60 341.0444,-57.9772 342.0529,-64.9042"/>
</g>
<!-- cluster_TopOfVisualizer_clock&#45;&gt;struct_cluster_TopOfVisualizer_myMem -->
<g id="edge34" class="edge">
<title>cluster_TopOfVisualizer_clock&#45;&gt;struct_cluster_TopOfVisualizer_myMem:_T_3_clk</title>
<path fill="none" stroke="#000000" d="M278.6025,-138.7005C288.0256,-143.0485 298.3699,-148.5741 306.9443,-155 327.3588,-170.2992 323.7086,-195.9125 341.5637,-202.4462"/>
<polygon fill="#000000" stroke="#000000" points="341.022,-205.904 351.4443,-204 342.1095,-198.9889 341.022,-205.904"/>
</g>
<!-- cluster_TopOfVisualizer_reset -->
<g id="node2" class="node">
<title>cluster_TopOfVisualizer_reset</title>
<polygon fill="#cccccc" stroke="#000000" points="106.9722,-468 52.9722,-468 52.9722,-432 106.9722,-432 106.9722,-468"/>
<text text-anchor="middle" x="79.9722" y="-445.8" font-family="Times,serif" font-size="14.00" fill="#000000">reset</text>
</g>
<!-- cluster_TopOfVisualizer_io_in1 -->
<g id="node3" class="node">
<title>cluster_TopOfVisualizer_io_in1</title>
<polygon fill="#cccccc" stroke="#000000" points="106.9722,-299 52.9722,-299 52.9722,-263 106.9722,-263 106.9722,-299"/>
<text text-anchor="middle" x="79.9722" y="-276.8" font-family="Times,serif" font-size="14.00" fill="#000000">io_in1</text>
</g>
<!-- mux_1768805230 -->
<g id="node17" class="node">
<title>mux_1768805230</title>
<polygon fill="#afeeee" stroke="transparent" points="222.4443,-320 222.4443,-372 280.4443,-372 280.4443,-320 222.4443,-320"/>
<polygon fill="none" stroke="#000000" points="222.4443,-346 222.4443,-372 240.4443,-372 240.4443,-346 222.4443,-346"/>
<text text-anchor="start" x="227.3975" y="-355.8" font-family="Times,serif" font-size="14.00" fill="#000000">●</text>
<polygon fill="none" stroke="#000000" points="240.4443,-320 240.4443,-372 262.4443,-372 262.4443,-320 240.4443,-320"/>
<text text-anchor="start" x="245.2305" y="-341.8" font-family="Times,serif" font-size="14.00" fill="#000000">a?</text>
<polygon fill="none" stroke="#000000" points="262.4443,-320 262.4443,-372 280.4443,-372 280.4443,-320 262.4443,-320"/>
<text text-anchor="start" x="267.3975" y="-343.0441" font-family="Times,serif" font-size="14.00" fill="#000000">●</text>
<polygon fill="none" stroke="#000000" points="222.4443,-320 222.4443,-346 240.4443,-346 240.4443,-320 222.4443,-320"/>
<text text-anchor="start" x="227.3975" y="-329.8" font-family="Times,serif" font-size="14.00" fill="#000000">●</text>
</g>
<!-- cluster_TopOfVisualizer_io_in1&#45;&gt;mux_1768805230 -->
<g id="edge21" class="edge">
<title>cluster_TopOfVisualizer_io_in1&#45;&gt;mux_1768805230:in1</title>
<path fill="none" stroke="#000000" d="M98.4761,-299.0908C122.3344,-320.5577 166.2599,-354.0242 212.286,-358.4994"/>
<polygon fill="#000000" stroke="#000000" points="212.2841,-362.0034 222.4443,-359 212.6288,-355.0119 212.2841,-362.0034"/>
</g>
<!-- op_bits_11 -->
<g id="node29" class="node">
<title>op_bits_11</title>
<polygon fill="#d8bfd8" stroke="transparent" points="203.9443,-244 203.9443,-294 298.9443,-294 298.9443,-244 203.9443,-244"/>
<polygon fill="none" stroke="#000000" points="204.4443,-268 204.4443,-294 244.4443,-294 244.4443,-268 204.4443,-268"/>
<text text-anchor="start" x="220.3975" y="-277.8" font-family="Times,serif" font-size="14.00" fill="#000000">●</text>
<polygon fill="none" stroke="#000000" points="244.4443,-244 244.4443,-294 281.4443,-294 281.4443,-244 244.4443,-244"/>
<text text-anchor="start" x="249.3306" y="-264.8" font-family="Times,serif" font-size="14.00" fill="#000000"> bits </text>
<polygon fill="none" stroke="#000000" points="281.4443,-244 281.4443,-294 299.4443,-294 299.4443,-244 281.4443,-244"/>
<text text-anchor="start" x="286.3975" y="-266.0441" font-family="Times,serif" font-size="14.00" fill="#000000">●</text>
<polygon fill="none" stroke="#000000" points="204.4443,-244 204.4443,-268 244.4443,-268 244.4443,-244 204.4443,-244"/>
<text text-anchor="start" x="209.2822" y="-251.8" font-family="Times,serif" font-size="14.00" fill="#000000">(3, 0)</text>
</g>
<!-- cluster_TopOfVisualizer_io_in1&#45;&gt;op_bits_11 -->
<g id="edge10" class="edge">
<title>cluster_TopOfVisualizer_io_in1&#45;&gt;op_bits_11:in1</title>
<path fill="none" stroke="#000000" d="M107.1674,-281C129.823,-281 163.2534,-281 194.1012,-281"/>
<polygon fill="#000000" stroke="#000000" points="194.4444,-284.5001 204.4443,-281 194.4443,-277.5001 194.4444,-284.5001"/>
</g>
<!-- op_bits_13 -->
<g id="node31" class="node">
<title>op_bits_13</title>
<polygon fill="#d8bfd8" stroke="transparent" points="203.9443,-168 203.9443,-218 298.9443,-218 298.9443,-168 203.9443,-168"/>
<polygon fill="none" stroke="#000000" points="204.4443,-192 204.4443,-218 244.4443,-218 244.4443,-192 204.4443,-192"/>
<text text-anchor="start" x="220.3975" y="-201.8" font-family="Times,serif" font-size="14.00" fill="#000000">●</text>
<polygon fill="none" stroke="#000000" points="244.4443,-168 244.4443,-218 281.4443,-218 281.4443,-168 244.4443,-168"/>
<text text-anchor="start" x="249.3306" y="-188.8" font-family="Times,serif" font-size="14.00" fill="#000000"> bits </text>
<polygon fill="none" stroke="#000000" points="281.4443,-168 281.4443,-218 299.4443,-218 299.4443,-168 281.4443,-168"/>
<text text-anchor="start" x="286.3975" y="-190.0441" font-family="Times,serif" font-size="14.00" fill="#000000">●</text>
<polygon fill="none" stroke="#000000" points="204.4443,-168 204.4443,-192 244.4443,-192 244.4443,-168 204.4443,-168"/>
<text text-anchor="start" x="209.2822" y="-175.8" font-family="Times,serif" font-size="14.00" fill="#000000">(3, 0)</text>
</g>
<!-- cluster_TopOfVisualizer_io_in1&#45;&gt;op_bits_13 -->
<g id="edge29" class="edge">
<title>cluster_TopOfVisualizer_io_in1&#45;&gt;op_bits_13:in1</title>
<path fill="none" stroke="#000000" d="M96.1626,-262.9891C116.5575,-242.2267 153.8677,-210.3348 194.3687,-205.5967"/>
<polygon fill="#000000" stroke="#000000" points="194.6688,-209.0852 204.4443,-205 194.2549,-202.0974 194.6688,-209.0852"/>
</g>
<!-- cluster_TopOfVisualizer_io_in2 -->
<g id="node4" class="node">
<title>cluster_TopOfVisualizer_io_in2</title>
<polygon fill="#cccccc" stroke="#000000" points="106.9722,-109 52.9722,-109 52.9722,-73 106.9722,-73 106.9722,-109"/>
<text text-anchor="middle" x="79.9722" y="-86.8" font-family="Times,serif" font-size="14.00" fill="#000000">io_in2</text>
</g>
<!-- cluster_TopOfVisualizer_io_in2&#45;&gt;struct_cluster_TopOfVisualizer_myMem -->
<g id="edge28" class="edge">
<title>cluster_TopOfVisualizer_io_in2&#45;&gt;struct_cluster_TopOfVisualizer_myMem:_T_1_data</title>
<path fill="none" stroke="#000000" d="M107.2946,-91.2173C150.0013,-91.7792 235.1242,-93.792 306.9443,-101 322.9744,-102.6088 329.0568,-106.1611 341.2532,-107.4873"/>
<polygon fill="#000000" stroke="#000000" points="341.2811,-110.9931 351.4443,-108 341.6328,-104.0019 341.2811,-110.9931"/>
</g>
<!-- cluster_TopOfVisualizer_io_in2&#45;&gt;mux_1768805230 -->
<g id="edge7" class="edge">
<title>cluster_TopOfVisualizer_io_in2&#45;&gt;mux_1768805230:in2</title>
<path fill="none" stroke="#000000" d="M88.7375,-109.048C112.7968,-158.3249 179.1852,-292.462 195.9443,-307 204.6704,-314.5695 218.1774,-309.9337 225.7671,-311.7571"/>
<polygon fill="#000000" stroke="#000000" points="222.8896,-313.7496 231.4443,-320 228.6546,-309.779 222.8896,-313.7496"/>
</g>
<!-- op_add_8 -->
<g id="node25" class="node">
<title>op_add_8</title>
<polygon fill="#d8bfd8" stroke="transparent" points="749.9443,-209 749.9443,-261 822.9443,-261 822.9443,-209 749.9443,-209"/>
<polygon fill="none" stroke="#000000" points="750.4443,-235 750.4443,-261 768.4443,-261 768.4443,-235 750.4443,-235"/>
<text text-anchor="start" x="755.3975" y="-244.8" font-family="Times,serif" font-size="14.00" fill="#000000">●</text>
<polygon fill="none" stroke="#000000" points="768.4443,-209 768.4443,-261 805.4443,-261 805.4443,-209 768.4443,-209"/>
<text text-anchor="start" x="773.3374" y="-230.8" font-family="Times,serif" font-size="14.00" fill="#000000"> add </text>
<polygon fill="none" stroke="#000000" points="805.4443,-209 805.4443,-261 823.4443,-261 823.4443,-209 805.4443,-209"/>
<text text-anchor="start" x="810.3975" y="-232.0441" font-family="Times,serif" font-size="14.00" fill="#000000">●</text>
<polygon fill="none" stroke="#000000" points="750.4443,-209 750.4443,-235 768.4443,-235 768.4443,-209 750.4443,-209"/>
<text text-anchor="start" x="755.3975" y="-218.8" font-family="Times,serif" font-size="14.00" fill="#000000">●</text>
</g>
<!-- cluster_TopOfVisualizer_io_in2&#45;&gt;op_add_8 -->
<g id="edge25" class="edge">
<title>cluster_TopOfVisualizer_io_in2&#45;&gt;op_add_8:in2</title>
<path fill="none" stroke="#000000" d="M104.7489,-72.9234C127.2841,-57.5944 162.0979,-36.6113 195.9443,-27 283.0538,-2.2637 308.8908,-17 399.4443,-17 399.4443,-17 399.4443,-17 536.4443,-17 663.7812,-17 754.5546,-75.0292 759.253,-198.7996"/>
<polygon fill="#000000" stroke="#000000" points="755.7573,-199.0674 759.4443,-209 762.7561,-198.9361 755.7573,-199.0674"/>
</g>
<!-- cluster_TopOfVisualizer_io_select -->
<g id="node5" class="node">
<title>cluster_TopOfVisualizer_io_select</title>
<polygon fill="#cccccc" stroke="#000000" points="112.7314,-413 47.2129,-413 47.2129,-377 112.7314,-377 112.7314,-413"/>
<text text-anchor="middle" x="79.9722" y="-390.8" font-family="Times,serif" font-size="14.00" fill="#000000">io_select</text>
</g>
<!-- cluster_TopOfVisualizer_io_select&#45;&gt;struct_cluster_TopOfVisualizer_myMem -->
<g id="edge6" class="edge">
<title>cluster_TopOfVisualizer_io_select&#45;&gt;struct_cluster_TopOfVisualizer_myMem:_T_1_en</title>
<path fill="none" stroke="#000000" d="M113.1174,-398.3435C169.0363,-403.2219 278.7872,-409.2728 306.9443,-385 382.7138,-319.6831 257.1783,-167.2259 341.3843,-156.587"/>
<polygon fill="#000000" stroke="#000000" points="341.6652,-160.0767 351.4443,-156 341.2574,-153.0886 341.6652,-160.0767"/>
</g>
<!-- cluster_TopOfVisualizer_io_select&#45;&gt;mux_1768805230 -->
<g id="edge8" class="edge">
<title>cluster_TopOfVisualizer_io_select&#45;&gt;mux_1768805230:select</title>
<path fill="none" stroke="#000000" d="M113.0337,-393.8441C153.9081,-392.0473 220.8612,-387.7966 243.6027,-378.7002"/>
<polygon fill="#000000" stroke="#000000" points="246.1153,-381.1571 251.4443,-372 241.568,-375.8352 246.1153,-381.1571"/>
</g>
<!-- mux_1196300394 -->
<g id="node28" class="node">
<title>mux_1196300394</title>
<polygon fill="#afeeee" stroke="transparent" points="222.9443,-418 222.9443,-466 279.9443,-466 279.9443,-418 222.9443,-418"/>
<polygon fill="none" stroke="#000000" points="223.4443,-442 223.4443,-466 240.4443,-466 240.4443,-442 223.4443,-442"/>
<text text-anchor="start" x="228.4443" y="-449.8" font-family="Times,serif" font-size="14.00" fill="#000000">0</text>
<polygon fill="none" stroke="#000000" points="240.4443,-418 240.4443,-466 262.4443,-466 262.4443,-418 240.4443,-418"/>
<text text-anchor="start" x="245.2305" y="-437.8" font-family="Times,serif" font-size="14.00" fill="#000000">a?</text>
<polygon fill="none" stroke="#000000" points="262.4443,-418 262.4443,-466 280.4443,-466 280.4443,-418 262.4443,-418"/>
<text text-anchor="start" x="267.3975" y="-439.0441" font-family="Times,serif" font-size="14.00" fill="#000000">●</text>
<polygon fill="none" stroke="#000000" points="223.4443,-418 223.4443,-442 240.4443,-442 240.4443,-418 223.4443,-418"/>
<text text-anchor="start" x="228.4443" y="-425.8" font-family="Times,serif" font-size="14.00" fill="#000000">1</text>
</g>
<!-- cluster_TopOfVisualizer_io_select&#45;&gt;mux_1196300394 -->
<g id="edge30" class="edge">
<title>cluster_TopOfVisualizer_io_select&#45;&gt;mux_1196300394:select</title>
<path fill="none" stroke="#000000" d="M113.0337,-396.1559C153.9081,-397.9527 220.8612,-402.2034 243.6027,-411.2998"/>
<polygon fill="#000000" stroke="#000000" points="241.568,-414.1648 251.4443,-418 246.1153,-408.8429 241.568,-414.1648"/>
</g>
<!-- cluster_TopOfVisualizer_io_out -->
<g id="node6" class="node">
<title>cluster_TopOfVisualizer_io_out</title>
<polygon fill="#e0ffff" stroke="#000000" points="1920.9443,-317 1866.9443,-317 1866.9443,-281 1920.9443,-281 1920.9443,-317"/>
<text text-anchor="middle" x="1893.9443" y="-294.8" font-family="Times,serif" font-size="14.00" fill="#000000">io_out</text>
</g>
<!-- cluster_TopOfVisualizer_io_memOut -->
<g id="node7" class="node">
<title>cluster_TopOfVisualizer_io_memOut</title>
<polygon fill="#e0ffff" stroke="#000000" points="577.8272,-212 495.0614,-212 495.0614,-176 577.8272,-176 577.8272,-212"/>
<text text-anchor="middle" x="536.4443" y="-189.8" font-family="Times,serif" font-size="14.00" fill="#000000">io_memOut</text>
</g>
<!-- struct_cluster_TopOfVisualizer_myMem&#45;&gt;cluster_TopOfVisualizer_io_memOut -->
<g id="edge1" class="edge">
<title>struct_cluster_TopOfVisualizer_myMem:_T_3_data&#45;&gt;cluster_TopOfVisualizer_io_memOut</title>
<path fill="none" stroke="#000000" d="M448.4443,-228C456.7961,-228 472.4595,-222.6041 488.2835,-216.1114"/>
<polygon fill="#000000" stroke="#000000" points="489.7127,-219.3073 497.5649,-212.1944 486.9909,-212.8581 489.7127,-219.3073"/>
</g>
<!-- cluster_TopOfVisualizer_modA_io_in -->
<g id="node9" class="node">
<title>cluster_TopOfVisualizer_modA_io_in</title>
<polygon fill="#cccccc" stroke="#000000" points="563.4443,-320 509.4443,-320 509.4443,-284 563.4443,-284 563.4443,-320"/>
<text text-anchor="middle" x="536.4443" y="-297.8" font-family="Times,serif" font-size="14.00" fill="#000000">io_in</text>
</g>
<!-- cluster_TopOfVisualizer_modA_io_out -->
<g id="node10" class="node">
<title>cluster_TopOfVisualizer_modA_io_out</title>
<polygon fill="#e0ffff" stroke="#000000" points="563.4443,-266 509.4443,-266 509.4443,-230 563.4443,-230 563.4443,-266"/>
<text text-anchor="middle" x="536.4443" y="-243.8" font-family="Times,serif" font-size="14.00" fill="#000000">io_out</text>
</g>
<!-- op_pad_9 -->
<g id="node26" class="node">
<title>op_pad_9</title>
<polygon fill="#d8bfd8" stroke="transparent" points="624.9443,-235 624.9443,-261 697.9443,-261 697.9443,-235 624.9443,-235"/>
<polygon fill="none" stroke="#000000" points="625.4443,-235 625.4443,-261 643.4443,-261 643.4443,-235 625.4443,-235"/>
<text text-anchor="start" x="630.3975" y="-244.8" font-family="Times,serif" font-size="14.00" fill="#000000">●</text>
<polygon fill="none" stroke="#000000" points="643.4443,-235 643.4443,-261 680.4443,-261 680.4443,-235 643.4443,-235"/>
<text text-anchor="start" x="648.3374" y="-243.8" font-family="Times,serif" font-size="14.00" fill="#000000"> pad </text>
<polygon fill="none" stroke="#000000" points="680.4443,-235 680.4443,-261 698.4443,-261 698.4443,-235 680.4443,-235"/>
<text text-anchor="start" x="685.3975" y="-244.8" font-family="Times,serif" font-size="14.00" fill="#000000">●</text>
</g>
<!-- cluster_TopOfVisualizer_modA_io_out&#45;&gt;op_pad_9 -->
<g id="edge24" class="edge">
<title>cluster_TopOfVisualizer_modA_io_out&#45;&gt;op_pad_9:in1</title>
<path fill="none" stroke="#000000" d="M563.7108,-248C578.5041,-248 597.3884,-248 615.3228,-248"/>
<polygon fill="#000000" stroke="#000000" points="615.4444,-251.5001 625.4443,-248 615.4443,-244.5001 615.4444,-251.5001"/>
</g>
<!-- cluster_TopOfVisualizer_modB_io_in -->
<g id="node11" class="node">
<title>cluster_TopOfVisualizer_modB_io_in</title>
<polygon fill="#cccccc" stroke="#000000" points="936.9443,-426 882.9443,-426 882.9443,-390 936.9443,-390 936.9443,-426"/>
<text text-anchor="middle" x="909.9443" y="-403.8" font-family="Times,serif" font-size="14.00" fill="#000000">io_in</text>
</g>
<!-- cluster_TopOfVisualizer_modB_io_out -->
<g id="node12" class="node">
<title>cluster_TopOfVisualizer_modB_io_out</title>
<polygon fill="#e0ffff" stroke="#000000" points="936.9443,-372 882.9443,-372 882.9443,-336 936.9443,-336 936.9443,-372"/>
<text text-anchor="middle" x="909.9443" y="-349.8" font-family="Times,serif" font-size="14.00" fill="#000000">io_out</text>
</g>
<!-- op_add_6 -->
<g id="node23" class="node">
<title>op_add_6</title>
<polygon fill="#d8bfd8" stroke="transparent" points="996.9443,-336 996.9443,-388 1069.9443,-388 1069.9443,-336 996.9443,-336"/>
<polygon fill="none" stroke="#000000" points="997.4443,-362 997.4443,-388 1015.4443,-388 1015.4443,-362 997.4443,-362"/>
<text text-anchor="start" x="1002.3975" y="-371.8" font-family="Times,serif" font-size="14.00" fill="#000000">●</text>
<polygon fill="none" stroke="#000000" points="1015.4443,-336 1015.4443,-388 1052.4443,-388 1052.4443,-336 1015.4443,-336"/>
<text text-anchor="start" x="1020.3374" y="-357.8" font-family="Times,serif" font-size="14.00" fill="#000000"> add </text>
<polygon fill="none" stroke="#000000" points="1052.4443,-336 1052.4443,-388 1070.4443,-388 1070.4443,-336 1052.4443,-336"/>
<text text-anchor="start" x="1057.3975" y="-359.0441" font-family="Times,serif" font-size="14.00" fill="#000000">●</text>
<polygon fill="none" stroke="#000000" points="997.4443,-336 997.4443,-362 1015.4443,-362 1015.4443,-336 997.4443,-336"/>
<text text-anchor="start" x="1002.3975" y="-345.8" font-family="Times,serif" font-size="14.00" fill="#000000">●</text>
</g>
<!-- cluster_TopOfVisualizer_modB_io_out&#45;&gt;op_add_6 -->
<g id="edge12" class="edge">
<title>cluster_TopOfVisualizer_modB_io_out&#45;&gt;op_add_6:in2</title>
<path fill="none" stroke="#000000" d="M937.117,-351.6464C951.5482,-350.5623 969.8671,-349.4414 987.3108,-349.1028"/>
<polygon fill="#000000" stroke="#000000" points="987.4804,-352.6013 997.4443,-349 987.4093,-345.6017 987.4804,-352.6013"/>
</g>
<!-- cluster_TopOfVisualizer_modC_io_in -->
<g id="node13" class="node">
<title>cluster_TopOfVisualizer_modC_io_in</title>
<polygon fill="#cccccc" stroke="#000000" points="688.4443,-374 634.4443,-374 634.4443,-338 688.4443,-338 688.4443,-374"/>
<text text-anchor="middle" x="661.4443" y="-351.8" font-family="Times,serif" font-size="14.00" fill="#000000">io_in</text>
</g>
<!-- cluster_TopOfVisualizer_modC_io_out -->
<g id="node14" class="node">
<title>cluster_TopOfVisualizer_modC_io_out</title>
<polygon fill="#e0ffff" stroke="#000000" points="688.4443,-320 634.4443,-320 634.4443,-284 688.4443,-284 688.4443,-320"/>
<text text-anchor="middle" x="661.4443" y="-297.8" font-family="Times,serif" font-size="14.00" fill="#000000">io_out</text>
</g>
<!-- op_add_3 -->
<g id="node20" class="node">
<title>op_add_3</title>
<polygon fill="#d8bfd8" stroke="transparent" points="1368.9443,-297 1368.9443,-349 1441.9443,-349 1441.9443,-297 1368.9443,-297"/>
<polygon fill="none" stroke="#000000" points="1369.4443,-323 1369.4443,-349 1387.4443,-349 1387.4443,-323 1369.4443,-323"/>
<text text-anchor="start" x="1374.3975" y="-332.8" font-family="Times,serif" font-size="14.00" fill="#000000">●</text>
<polygon fill="none" stroke="#000000" points="1387.4443,-297 1387.4443,-349 1424.4443,-349 1424.4443,-297 1387.4443,-297"/>
<text text-anchor="start" x="1392.3374" y="-318.8" font-family="Times,serif" font-size="14.00" fill="#000000"> add </text>
<polygon fill="none" stroke="#000000" points="1424.4443,-297 1424.4443,-349 1442.4443,-349 1442.4443,-297 1424.4443,-297"/>
<text text-anchor="start" x="1429.3975" y="-320.0441" font-family="Times,serif" font-size="14.00" fill="#000000">●</text>
<polygon fill="none" stroke="#000000" points="1369.4443,-297 1369.4443,-323 1387.4443,-323 1387.4443,-297 1369.4443,-297"/>
<text text-anchor="start" x="1374.3975" y="-306.8" font-family="Times,serif" font-size="14.00" fill="#000000">●</text>
</g>
<!-- cluster_TopOfVisualizer_modC_io_out&#45;&gt;op_add_3 -->
<g id="edge20" class="edge">
<title>cluster_TopOfVisualizer_modC_io_out&#45;&gt;op_add_3:in2</title>
<path fill="none" stroke="#000000" d="M688.6551,-302C734.3691,-302 829.4838,-302 909.9443,-302 909.9443,-302 909.9443,-302 1156.9443,-302 1247.9484,-302 1273.0927,-309.4173 1359.2088,-309.9678"/>
<polygon fill="#000000" stroke="#000000" points="1359.4333,-313.4684 1369.4443,-310 1359.4554,-306.4684 1359.4333,-313.4684"/>
</g>
<!-- struct_cluster_TopOfVisualizer_x -->
<g id="node15" class="node">
<title>struct_cluster_TopOfVisualizer_x</title>
<polygon fill="#ffe4b5" stroke="transparent" points="372.9443,-363 372.9443,-389 425.9443,-389 425.9443,-363 372.9443,-363"/>
<polygon fill="none" stroke="#000000" points="373.4443,-363 373.4443,-389 391.4443,-389 391.4443,-363 373.4443,-363"/>
<text text-anchor="start" x="378.3975" y="-372.8" font-family="Times,serif" font-size="14.00" fill="#000000">●</text>
<polygon fill="none" stroke="#000000" points="391.4443,-363 391.4443,-389 408.4443,-389 408.4443,-363 391.4443,-363"/>
<text text-anchor="start" x="396.4443" y="-371.8" font-family="Times,serif" font-size="14.00" fill="#000000">x</text>
<polygon fill="none" stroke="#000000" points="408.4443,-363 408.4443,-389 426.4443,-389 426.4443,-363 408.4443,-363"/>
<text text-anchor="start" x="413.3975" y="-372.8" font-family="Times,serif" font-size="14.00" fill="#000000">●</text>
</g>
<!-- struct_cluster_TopOfVisualizer_x&#45;&gt;cluster_TopOfVisualizer_modA_io_in -->
<g id="edge4" class="edge">
<title>struct_cluster_TopOfVisualizer_x:out&#45;&gt;cluster_TopOfVisualizer_modA_io_in</title>
<path fill="none" stroke="#000000" d="M426.4443,-376C463.614,-376 460.5528,-343.9035 491.9443,-324 494.5532,-322.3458 497.304,-320.7236 500.1056,-319.1568"/>
<polygon fill="#000000" stroke="#000000" points="501.9274,-322.1523 509.1165,-314.3698 498.6433,-315.9704 501.9274,-322.1523"/>
</g>
<!-- struct_cluster_TopOfVisualizer_x&#45;&gt;cluster_TopOfVisualizer_modB_io_in -->
<g id="edge26" class="edge">
<title>struct_cluster_TopOfVisualizer_x:out&#45;&gt;cluster_TopOfVisualizer_modB_io_in</title>
<path fill="none" stroke="#000000" d="M426.4443,-376C457.9317,-376 461.1851,-396.2673 491.9443,-403 629.4553,-433.0988 798.5454,-420.4585 872.4243,-412.5644"/>
<polygon fill="#000000" stroke="#000000" points="873.0626,-416.0153 882.6185,-411.4398 872.295,-409.0575 873.0626,-416.0153"/>
</g>
<!-- op_pad_10 -->
<g id="node27" class="node">
<title>op_pad_10</title>
<polygon fill="#d8bfd8" stroke="transparent" points="499.9443,-363 499.9443,-389 572.9443,-389 572.9443,-363 499.9443,-363"/>
<polygon fill="none" stroke="#000000" points="500.4443,-363 500.4443,-389 518.4443,-389 518.4443,-363 500.4443,-363"/>
<text text-anchor="start" x="505.3975" y="-372.8" font-family="Times,serif" font-size="14.00" fill="#000000">●</text>
<polygon fill="none" stroke="#000000" points="518.4443,-363 518.4443,-389 555.4443,-389 555.4443,-363 518.4443,-363"/>
<text text-anchor="start" x="523.3374" y="-371.8" font-family="Times,serif" font-size="14.00" fill="#000000"> pad </text>
<polygon fill="none" stroke="#000000" points="555.4443,-363 555.4443,-389 573.4443,-389 573.4443,-363 555.4443,-363"/>
<text text-anchor="start" x="560.3975" y="-372.8" font-family="Times,serif" font-size="14.00" fill="#000000">●</text>
</g>
<!-- struct_cluster_TopOfVisualizer_x&#45;&gt;op_pad_10 -->
<g id="edge33" class="edge">
<title>struct_cluster_TopOfVisualizer_x:out&#45;&gt;op_pad_10:in1</title>
<path fill="none" stroke="#000000" d="M426.4443,-376C455.6075,-376 465.3761,-376 490.1452,-376"/>
<polygon fill="#000000" stroke="#000000" points="490.4444,-379.5001 500.4443,-376 490.4443,-372.5001 490.4444,-379.5001"/>
</g>
<!-- struct_cluster_TopOfVisualizer_y -->
<g id="node16" class="node">
<title>struct_cluster_TopOfVisualizer_y</title>
<polygon fill="#ffe4b5" stroke="transparent" points="1769.9443,-286 1769.9443,-312 1822.9443,-312 1822.9443,-286 1769.9443,-286"/>
<polygon fill="none" stroke="#000000" points="1770.4443,-286 1770.4443,-312 1788.4443,-312 1788.4443,-286 1770.4443,-286"/>
<text text-anchor="start" x="1775.3975" y="-295.8" font-family="Times,serif" font-size="14.00" fill="#000000">●</text>
<polygon fill="none" stroke="#000000" points="1788.4443,-286 1788.4443,-312 1805.4443,-312 1805.4443,-286 1788.4443,-286"/>
<text text-anchor="start" x="1793.4443" y="-294.8" font-family="Times,serif" font-size="14.00" fill="#000000">y</text>
<polygon fill="none" stroke="#000000" points="1805.4443,-286 1805.4443,-312 1823.4443,-312 1823.4443,-286 1805.4443,-286"/>
<text text-anchor="start" x="1810.3975" y="-295.8" font-family="Times,serif" font-size="14.00" fill="#000000">●</text>
</g>
<!-- struct_cluster_TopOfVisualizer_y&#45;&gt;cluster_TopOfVisualizer_io_out -->
<g id="edge18" class="edge">
<title>struct_cluster_TopOfVisualizer_y:out&#45;&gt;cluster_TopOfVisualizer_io_out</title>
<path fill="none" stroke="#000000" d="M1823.4443,-299C1834.1846,-299 1845.8452,-299 1856.5333,-299"/>
<polygon fill="#000000" stroke="#000000" points="1856.8271,-302.5001 1866.8271,-299 1856.8271,-295.5001 1856.8271,-302.5001"/>
</g>
<!-- mux_1768805230&#45;&gt;struct_cluster_TopOfVisualizer_x -->
<g id="edge27" class="edge">
<title>mux_1768805230:out&#45;&gt;struct_cluster_TopOfVisualizer_x:in</title>
<path fill="none" stroke="#000000" d="M280.4443,-346C320.1427,-346 328.6832,-371.0653 363.0263,-375.3734"/>
<polygon fill="#000000" stroke="#000000" points="363.2522,-378.8932 373.4443,-376 363.6725,-371.9059 363.2522,-378.8932"/>
</g>
<!-- op_bits_1 -->
<g id="node18" class="node">
<title>op_bits_1</title>
<polygon fill="#d8bfd8" stroke="transparent" points="1615.9443,-274 1615.9443,-324 1717.9443,-324 1717.9443,-274 1615.9443,-274"/>
<polygon fill="none" stroke="#000000" points="1615.9443,-298 1615.9443,-324 1662.9443,-324 1662.9443,-298 1615.9443,-298"/>
<text text-anchor="start" x="1635.3975" y="-307.8" font-family="Times,serif" font-size="14.00" fill="#000000">●</text>
<polygon fill="none" stroke="#000000" points="1662.9443,-274 1662.9443,-324 1699.9443,-324 1699.9443,-274 1662.9443,-274"/>
<text text-anchor="start" x="1667.8306" y="-294.8" font-family="Times,serif" font-size="14.00" fill="#000000"> bits </text>
<polygon fill="none" stroke="#000000" points="1699.9443,-274 1699.9443,-324 1717.9443,-324 1717.9443,-274 1699.9443,-274"/>
<text text-anchor="start" x="1704.8975" y="-296.0441" font-family="Times,serif" font-size="14.00" fill="#000000">●</text>
<polygon fill="none" stroke="#000000" points="1615.9443,-274 1615.9443,-298 1662.9443,-298 1662.9443,-274 1615.9443,-274"/>
<text text-anchor="start" x="1620.7822" y="-281.8" font-family="Times,serif" font-size="14.00" fill="#000000">(31, 0)</text>
</g>
<!-- op_bits_1&#45;&gt;struct_cluster_TopOfVisualizer_y -->
<g id="edge13" class="edge">
<title>op_bits_1:out&#45;&gt;struct_cluster_TopOfVisualizer_y:in</title>
<path fill="none" stroke="#000000" d="M1717.9443,-299C1737.4495,-299 1744.7259,-299 1760.2185,-299"/>
<polygon fill="#000000" stroke="#000000" points="1760.4444,-302.5001 1770.4443,-299 1760.4443,-295.5001 1760.4444,-302.5001"/>
</g>
<!-- op_tail_2 -->
<g id="node19" class="node">
<title>op_tail_2</title>
<polygon fill="#d8bfd8" stroke="transparent" points="1493.9443,-286 1493.9443,-336 1563.9443,-336 1563.9443,-286 1493.9443,-286"/>
<polygon fill="none" stroke="#000000" points="1493.9443,-310 1493.9443,-336 1511.9443,-336 1511.9443,-310 1493.9443,-310"/>
<text text-anchor="start" x="1498.8975" y="-319.8" font-family="Times,serif" font-size="14.00" fill="#000000">●</text>
<polygon fill="none" stroke="#000000" points="1511.9443,-286 1511.9443,-336 1545.9443,-336 1545.9443,-286 1511.9443,-286"/>
<text text-anchor="start" x="1516.5029" y="-306.8" font-family="Times,serif" font-size="14.00" fill="#000000"> tail </text>
<polygon fill="none" stroke="#000000" points="1545.9443,-286 1545.9443,-336 1563.9443,-336 1563.9443,-286 1545.9443,-286"/>
<text text-anchor="start" x="1550.8975" y="-308.0441" font-family="Times,serif" font-size="14.00" fill="#000000">●</text>
<polygon fill="none" stroke="#000000" points="1493.9443,-286 1493.9443,-310 1511.9443,-310 1511.9443,-286 1493.9443,-286"/>
<text text-anchor="start" x="1499.4443" y="-293.8" font-family="Times,serif" font-size="14.00" fill="#000000">1</text>
</g>
<!-- op_tail_2&#45;&gt;op_bits_1 -->
<g id="edge3" class="edge">
<title>op_tail_2:out&#45;&gt;op_bits_1:in1</title>
<path fill="none" stroke="#000000" d="M1563.9443,-311C1583.2638,-311 1590.4708,-311 1605.8159,-311"/>
<polygon fill="#000000" stroke="#000000" points="1605.9444,-314.5001 1615.9443,-311 1605.9443,-307.5001 1605.9444,-314.5001"/>
</g>
<!-- op_add_3&#45;&gt;op_tail_2 -->
<g id="edge5" class="edge">
<title>op_add_3:out&#45;&gt;op_tail_2:in1</title>
<path fill="none" stroke="#000000" d="M1442.4443,-323C1461.578,-323 1468.7158,-323 1483.9133,-323"/>
<polygon fill="#000000" stroke="#000000" points="1483.9444,-326.5001 1493.9443,-323 1483.9443,-319.5001 1483.9444,-326.5001"/>
</g>
<!-- op_pad_4 -->
<g id="node21" class="node">
<title>op_pad_4</title>
<polygon fill="#d8bfd8" stroke="transparent" points="1243.9443,-331 1243.9443,-357 1316.9443,-357 1316.9443,-331 1243.9443,-331"/>
<polygon fill="none" stroke="#000000" points="1244.4443,-331 1244.4443,-357 1262.4443,-357 1262.4443,-331 1244.4443,-331"/>
<text text-anchor="start" x="1249.3975" y="-340.8" font-family="Times,serif" font-size="14.00" fill="#000000">●</text>
<polygon fill="none" stroke="#000000" points="1262.4443,-331 1262.4443,-357 1299.4443,-357 1299.4443,-331 1262.4443,-331"/>
<text text-anchor="start" x="1267.3374" y="-339.8" font-family="Times,serif" font-size="14.00" fill="#000000"> pad </text>
<polygon fill="none" stroke="#000000" points="1299.4443,-331 1299.4443,-357 1317.4443,-357 1317.4443,-331 1299.4443,-331"/>
<text text-anchor="start" x="1304.3975" y="-340.8" font-family="Times,serif" font-size="14.00" fill="#000000">●</text>
</g>
<!-- op_pad_4&#45;&gt;op_add_3 -->
<g id="edge32" class="edge">
<title>op_pad_4:out&#45;&gt;op_add_3:in1</title>
<path fill="none" stroke="#000000" d="M1317.4443,-344C1336.9911,-344 1343.8554,-338.4097 1359.2407,-336.5753"/>
<polygon fill="#000000" stroke="#000000" points="1359.6573,-340.0575 1369.4443,-336 1359.2631,-333.0686 1359.6573,-340.0575"/>
</g>
<!-- op_tail_5 -->
<g id="node22" class="node">
<title>op_tail_5</title>
<polygon fill="#d8bfd8" stroke="transparent" points="1121.9443,-325 1121.9443,-375 1191.9443,-375 1191.9443,-325 1121.9443,-325"/>
<polygon fill="none" stroke="#000000" points="1121.9443,-349 1121.9443,-375 1139.9443,-375 1139.9443,-349 1121.9443,-349"/>
<text text-anchor="start" x="1126.8975" y="-358.8" font-family="Times,serif" font-size="14.00" fill="#000000">●</text>
<polygon fill="none" stroke="#000000" points="1139.9443,-325 1139.9443,-375 1173.9443,-375 1173.9443,-325 1139.9443,-325"/>
<text text-anchor="start" x="1144.5029" y="-345.8" font-family="Times,serif" font-size="14.00" fill="#000000"> tail </text>
<polygon fill="none" stroke="#000000" points="1173.9443,-325 1173.9443,-375 1191.9443,-375 1191.9443,-325 1173.9443,-325"/>
<text text-anchor="start" x="1178.8975" y="-347.0441" font-family="Times,serif" font-size="14.00" fill="#000000">●</text>
<polygon fill="none" stroke="#000000" points="1121.9443,-325 1121.9443,-349 1139.9443,-349 1139.9443,-325 1121.9443,-325"/>
<text text-anchor="start" x="1127.4443" y="-332.8" font-family="Times,serif" font-size="14.00" fill="#000000">1</text>
</g>
<!-- op_tail_5&#45;&gt;op_pad_4 -->
<g id="edge15" class="edge">
<title>op_tail_5:out&#45;&gt;op_pad_4:in1</title>
<path fill="none" stroke="#000000" d="M1191.9443,-350C1211.5765,-350 1218.6614,-345.8073 1234.1765,-344.4315"/>
<polygon fill="#000000" stroke="#000000" points="1234.6001,-347.9169 1244.4443,-344 1234.3062,-340.9231 1234.6001,-347.9169"/>
</g>
<!-- op_add_6&#45;&gt;op_tail_5 -->
<g id="edge31" class="edge">
<title>op_add_6:out&#45;&gt;op_tail_5:in1</title>
<path fill="none" stroke="#000000" d="M1070.4443,-362C1089.578,-362 1096.7158,-362 1111.9133,-362"/>
<polygon fill="#000000" stroke="#000000" points="1111.9444,-365.5001 1121.9443,-362 1111.9443,-358.5001 1111.9444,-365.5001"/>
</g>
<!-- op_tail_7 -->
<g id="node24" class="node">
<title>op_tail_7</title>
<polygon fill="#d8bfd8" stroke="transparent" points="874.9443,-214 874.9443,-264 944.9443,-264 944.9443,-214 874.9443,-214"/>
<polygon fill="none" stroke="#000000" points="874.9443,-238 874.9443,-264 892.9443,-264 892.9443,-238 874.9443,-238"/>
<text text-anchor="start" x="879.8975" y="-247.8" font-family="Times,serif" font-size="14.00" fill="#000000">●</text>
<polygon fill="none" stroke="#000000" points="892.9443,-214 892.9443,-264 926.9443,-264 926.9443,-214 892.9443,-214"/>
<text text-anchor="start" x="897.5029" y="-234.8" font-family="Times,serif" font-size="14.00" fill="#000000"> tail </text>
<polygon fill="none" stroke="#000000" points="926.9443,-214 926.9443,-264 944.9443,-264 944.9443,-214 926.9443,-214"/>
<text text-anchor="start" x="931.8975" y="-236.0441" font-family="Times,serif" font-size="14.00" fill="#000000">●</text>
<polygon fill="none" stroke="#000000" points="874.9443,-214 874.9443,-238 892.9443,-238 892.9443,-214 874.9443,-214"/>
<text text-anchor="start" x="880.4443" y="-221.8" font-family="Times,serif" font-size="14.00" fill="#000000">1</text>
</g>
<!-- op_tail_7&#45;&gt;op_add_6 -->
<g id="edge23" class="edge">
<title>op_tail_7:out&#45;&gt;op_add_6:in1</title>
<path fill="none" stroke="#000000" d="M935.9443,-264C935.9443,-289.0052 962.1274,-356.9412 987.7203,-372.0121"/>
<polygon fill="#000000" stroke="#000000" points="986.8574,-375.4084 997.4443,-375 988.9134,-368.7171 986.8574,-375.4084"/>
</g>
<!-- op_add_8&#45;&gt;op_tail_7 -->
<g id="edge17" class="edge">
<title>op_add_8:out&#45;&gt;op_tail_7:in1</title>
<path fill="none" stroke="#000000" d="M823.4443,-235C843.4802,-235 849.2577,-246.1807 864.615,-249.8493"/>
<polygon fill="#000000" stroke="#000000" points="864.6183,-253.3713 874.9443,-251 865.3933,-246.4143 864.6183,-253.3713"/>
</g>
<!-- op_pad_9&#45;&gt;op_add_8 -->
<g id="edge2" class="edge">
<title>op_pad_9:out&#45;&gt;op_add_8:in1</title>
<path fill="none" stroke="#000000" d="M698.4443,-248C717.7638,-248 724.9708,-248 740.3159,-248"/>
<polygon fill="#000000" stroke="#000000" points="740.4444,-251.5001 750.4443,-248 740.4443,-244.5001 740.4444,-251.5001"/>
</g>
<!-- op_pad_10&#45;&gt;cluster_TopOfVisualizer_modC_io_in -->
<g id="edge19" class="edge">
<title>op_pad_10:out&#45;&gt;cluster_TopOfVisualizer_modC_io_in</title>
<path fill="none" stroke="#000000" d="M573.4443,-376C590.4092,-376 608.7664,-372.4219 624.3031,-368.2925"/>
<polygon fill="#000000" stroke="#000000" points="625.3931,-371.6216 634.0626,-365.5314 623.4874,-364.886 625.3931,-371.6216"/>
</g>
<!-- mux_1196300394&#45;&gt;struct_cluster_TopOfVisualizer_myMem -->
<g id="edge11" class="edge">
<title>mux_1196300394:out&#45;&gt;struct_cluster_TopOfVisualizer_myMem:_T_3_en</title>
<path fill="none" stroke="#000000" d="M271.4443,-418C271.4443,-400.3099 295.2394,-413.2639 306.9443,-400 343.1897,-358.9272 299.3172,-286.1747 341.456,-276.9671"/>
<polygon fill="#000000" stroke="#000000" points="341.8282,-280.4475 351.4443,-276 341.1535,-273.4801 341.8282,-280.4475"/>
</g>
<!-- op_bits_11&#45;&gt;struct_cluster_TopOfVisualizer_myMem -->
<g id="edge22" class="edge">
<title>op_bits_11:out&#45;&gt;struct_cluster_TopOfVisualizer_myMem:_T_3_addr</title>
<path fill="none" stroke="#000000" d="M290.4443,-244C290.4443,-236.6667 299.64,-243.3487 306.9443,-244 323.0505,-245.4362 329.0387,-249.7412 341.2339,-251.368"/>
<polygon fill="#000000" stroke="#000000" points="341.2472,-254.8755 351.4443,-252 341.6797,-247.8888 341.2472,-254.8755"/>
</g>
<!-- cluster_TopOfVisualizer_lit12 -->
<g id="node30" class="node">
<title>cluster_TopOfVisualizer_lit12</title>
<ellipse fill="#d3d3d3" stroke="#000000" cx="251.4443" cy="-54" rx="18" ry="18"/>
<text text-anchor="middle" x="251.4443" y="-49.8" font-family="Times,serif" font-size="14.00" fill="#000000">1</text>
</g>
<!-- cluster_TopOfVisualizer_lit12&#45;&gt;struct_cluster_TopOfVisualizer_myMem -->
<g id="edge9" class="edge">
<title>cluster_TopOfVisualizer_lit12&#45;&gt;struct_cluster_TopOfVisualizer_myMem:_T_1_mask</title>
<path fill="none" stroke="#000000" d="M267.629,-62.0394C284.92,-69.9539 313.597,-81.1901 341.3035,-83.5534"/>
<polygon fill="#000000" stroke="#000000" points="341.3,-87.0565 351.4443,-84 341.6081,-80.0633 341.3,-87.0565"/>
</g>
<!-- op_bits_13&#45;&gt;struct_cluster_TopOfVisualizer_myMem -->
<g id="edge16" class="edge">
<title>op_bits_13:out&#45;&gt;struct_cluster_TopOfVisualizer_myMem:_T_1_addr</title>
<path fill="none" stroke="#000000" d="M299.4443,-193C331.1728,-193 319.3739,-144.614 341.5807,-134.0296"/>
<polygon fill="#000000" stroke="#000000" points="342.355,-137.4437 351.4443,-132 340.9441,-130.5873 342.355,-137.4437"/>
</g>
<!-- Modules Only View Here -->
<g id="node32" class="node">
<title>Modules Only View Here</title>
<g id="a_node32"><a xlink:href="TopLevel.dot.svg" xlink:title="Modules Only View Here">
<polygon fill="none" stroke="#000000" points="159.9165,-544 .0278,-544 .0278,-508 159.9165,-508 159.9165,-544"/>
<text text-anchor="middle" x="79.9722" y="-521.8" font-family="Times,serif" font-size="14.00" fill="#000000">Modules Only View Here</text>
</a>
</g>
</g>
</g>
</svg>
