<?xml version="1.0" encoding="UTF-8" standalone="no"?>
<!DOCTYPE svg PUBLIC "-//W3C//DTD SVG 1.1//EN"
 "http://www.w3.org/Graphics/SVG/1.1/DTD/svg11.dtd">
<!-- Generated by graphviz version 2.40.1 (20161225.0304)
 -->
<!-- Title: VizModC Pages: 1 -->
<svg width="274pt" height="134pt"
 viewBox="0.00 0.00 273.94 134.00" xmlns="http://www.w3.org/2000/svg" xmlns:xlink="http://www.w3.org/1999/xlink">
<g id="graph0" class="graph" transform="scale(1 1) rotate(0) translate(4 130)">
<title>VizModC</title>
<polygon fill="#ffffff" stroke="transparent" points="-4,4 -4,-130 269.9443,-130 269.9443,4 -4,4"/>
<g id="clust1" class="cluster">
<title>cluster_VizModC</title>
<g id="a_clust1"><a xlink:href="TopOfVisualizer.dot.svg" xlink:title="VizModC">
<polygon fill="#fff8dc" stroke="#000000" points="44.9722,-8 44.9722,-82 257.9443,-82 257.9443,-8 44.9722,-8"/>
<text text-anchor="middle" x="151.4583" y="-66.8" font-family="Times,serif" font-size="14.00" fill="#000000">VizModC</text>
</a>
</g>
</g>
<!-- cluster_VizModC_io_in -->
<g id="node1" class="node">
<title>cluster_VizModC_io_in</title>
<polygon fill="#cccccc" stroke="#000000" points="106.9722,-52 52.9722,-52 52.9722,-16 106.9722,-16 106.9722,-52"/>
<text text-anchor="middle" x="79.9722" y="-29.8" font-family="Times,serif" font-size="14.00" fill="#000000">io_in</text>
</g>
<!-- cluster_VizModC_io_out -->
<g id="node2" class="node">
<title>cluster_VizModC_io_out</title>
<polygon fill="#e0ffff" stroke="#000000" points="249.9443,-52 195.9443,-52 195.9443,-16 249.9443,-16 249.9443,-52"/>
<text text-anchor="middle" x="222.9443" y="-29.8" font-family="Times,serif" font-size="14.00" fill="#000000">io_out</text>
</g>
<!-- cluster_VizModC_io_in&#45;&gt;cluster_VizModC_io_out -->
<g id="edge1" class="edge">
<title>cluster_VizModC_io_in&#45;&gt;cluster_VizModC_io_out</title>
<path fill="none" stroke="#000000" d="M107.2007,-34C129.4608,-34 161.1602,-34 185.7582,-34"/>
<polygon fill="#000000" stroke="#000000" points="185.8172,-37.5001 195.8172,-34 185.8172,-30.5001 185.8172,-37.5001"/>
</g>
<!-- Modules Only View Here -->
<g id="node3" class="node">
<title>Modules Only View Here</title>
<g id="a_node3"><a xlink:href="TopLevel.dot.svg" xlink:title="Modules Only View Here">
<polygon fill="none" stroke="#000000" points="159.9165,-126 .0278,-126 .0278,-90 159.9165,-90 159.9165,-126"/>
<text text-anchor="middle" x="79.9722" y="-103.8" font-family="Times,serif" font-size="14.00" fill="#000000">Modules Only View Here</text>
</a>
</g>
</g>
</g>
</svg>
