<?xml version="1.0" encoding="UTF-8" standalone="no"?>
<!DOCTYPE svg PUBLIC "-//W3C//DTD SVG 1.1//EN"
 "http://www.w3.org/Graphics/SVG/1.1/DTD/svg11.dtd">
<!-- Generated by graphviz version 2.40.1 (20161225.0304)
 -->
<!-- Title: VizModB_2 Pages: 1 -->
<svg width="364pt" height="226pt"
 viewBox="0.00 0.00 363.94 226.00" xmlns="http://www.w3.org/2000/svg" xmlns:xlink="http://www.w3.org/1999/xlink">
<g id="graph0" class="graph" transform="scale(1 1) rotate(0) translate(4 222)">
<title>VizModB_2</title>
<polygon fill="#ffffff" stroke="transparent" points="-4,4 -4,-222 359.9443,-222 359.9443,4 -4,4"/>
<g id="clust1" class="cluster">
<title>cluster_VizModB_2</title>
<g id="a_clust1"><a xlink:href="TopOfVisualizer.dot.svg" xlink:title="VizModB_2">
<polygon fill="#fff8dc" stroke="#000000" points="44.9722,-8 44.9722,-174 347.9443,-174 347.9443,-8 44.9722,-8"/>
<text text-anchor="middle" x="196.4583" y="-158.8" font-family="Times,serif" font-size="14.00" fill="#000000">VizModB_2</text>
</a>
</g>
</g>
<g id="clust2" class="cluster">
<title>cluster_VizModB_2_modC</title>
<g id="a_clust2"><a xlink:href="VizModC_3.dot.svg" xlink:title="modC">
<polygon fill="#add8e6" stroke="#000000" points="187.9443,-16 187.9443,-144 257.9443,-144 257.9443,-16 187.9443,-16"/>
<text text-anchor="middle" x="222.9443" y="-128.8" font-family="Times,serif" font-size="14.00" fill="#000000">modC</text>
</a>
</g>
</g>
<!-- cluster_VizModB_2_io_in -->
<g id="node1" class="node">
<title>cluster_VizModB_2_io_in</title>
<polygon fill="#cccccc" stroke="#000000" points="106.9722,-114 52.9722,-114 52.9722,-78 106.9722,-78 106.9722,-114"/>
<text text-anchor="middle" x="79.9722" y="-91.8" font-family="Times,serif" font-size="14.00" fill="#000000">io_in</text>
</g>
<!-- cluster_VizModB_2_modC_io_in -->
<g id="node3" class="node">
<title>cluster_VizModB_2_modC_io_in</title>
<polygon fill="#cccccc" stroke="#000000" points="249.9443,-114 195.9443,-114 195.9443,-78 249.9443,-78 249.9443,-114"/>
<text text-anchor="middle" x="222.9443" y="-91.8" font-family="Times,serif" font-size="14.00" fill="#000000">io_in</text>
</g>
<!-- cluster_VizModB_2_io_in&#45;&gt;cluster_VizModB_2_modC_io_in -->
<g id="edge1" class="edge">
<title>cluster_VizModB_2_io_in&#45;&gt;cluster_VizModB_2_modC_io_in</title>
<path fill="none" stroke="#000000" d="M107.2007,-96C129.4608,-96 161.1602,-96 185.7582,-96"/>
<polygon fill="#000000" stroke="#000000" points="185.8172,-99.5001 195.8172,-96 185.8172,-92.5001 185.8172,-99.5001"/>
</g>
<!-- cluster_VizModB_2_io_out -->
<g id="node2" class="node">
<title>cluster_VizModB_2_io_out</title>
<polygon fill="#e0ffff" stroke="#000000" points="339.9443,-60 285.9443,-60 285.9443,-24 339.9443,-24 339.9443,-60"/>
<text text-anchor="middle" x="312.9443" y="-37.8" font-family="Times,serif" font-size="14.00" fill="#000000">io_out</text>
</g>
<!-- cluster_VizModB_2_modC_io_out -->
<g id="node4" class="node">
<title>cluster_VizModB_2_modC_io_out</title>
<polygon fill="#e0ffff" stroke="#000000" points="249.9443,-60 195.9443,-60 195.9443,-24 249.9443,-24 249.9443,-60"/>
<text text-anchor="middle" x="222.9443" y="-37.8" font-family="Times,serif" font-size="14.00" fill="#000000">io_out</text>
</g>
<!-- cluster_VizModB_2_modC_io_out&#45;&gt;cluster_VizModB_2_io_out -->
<g id="edge2" class="edge">
<title>cluster_VizModB_2_modC_io_out&#45;&gt;cluster_VizModB_2_io_out</title>
<path fill="none" stroke="#000000" d="M249.9473,-42C257.972,-42 266.9109,-42 275.4752,-42"/>
<polygon fill="#000000" stroke="#000000" points="275.6494,-45.5001 285.6494,-42 275.6493,-38.5001 275.6494,-45.5001"/>
</g>
<!-- Modules Only View Here -->
<g id="node5" class="node">
<title>Modules Only View Here</title>
<g id="a_node5"><a xlink:href="TopLevel.dot.svg" xlink:title="Modules Only View Here">
<polygon fill="none" stroke="#000000" points="159.9165,-218 .0278,-218 .0278,-182 159.9165,-182 159.9165,-218"/>
<text text-anchor="middle" x="79.9722" y="-195.8" font-family="Times,serif" font-size="14.00" fill="#000000">Modules Only View Here</text>
</a>
</g>
</g>
</g>
</svg>
