<?xml version="1.0" encoding="UTF-8" standalone="no"?>
<!DOCTYPE svg PUBLIC "-//W3C//DTD SVG 1.1//EN"
 "http://www.w3.org/Graphics/SVG/1.1/DTD/svg11.dtd">
<!-- Generated by graphviz version 2.40.1 (20161225.0304)
 -->
<!-- Title: VizModA Pages: 1 -->
<svg width="1102pt" height="498pt"
 viewBox="0.00 0.00 1101.94 498.00" xmlns="http://www.w3.org/2000/svg" xmlns:xlink="http://www.w3.org/1999/xlink">
<g id="graph0" class="graph" transform="scale(1 1) rotate(0) translate(4 494)">
<title>VizModA</title>
<polygon fill="#ffffff" stroke="transparent" points="-4,4 -4,-494 1097.9443,-494 1097.9443,4 -4,4"/>
<g id="clust1" class="cluster">
<title>cluster_VizModA</title>
<g id="a_clust1"><a xlink:href="TopOfVisualizer.dot.svg" xlink:title="VizModA">
<polygon fill="#fff8dc" stroke="#000000" points="44.9722,-8 44.9722,-446 1085.9443,-446 1085.9443,-8 44.9722,-8"/>
<text text-anchor="middle" x="565.4583" y="-430.8" font-family="Times,serif" font-size="14.00" fill="#000000">VizModA</text>
</a>
</g>
</g>
<g id="clust2" class="cluster">
<title>cluster_VizModA_modC</title>
<g id="a_clust2"><a xlink:href="VizModC.dot.svg" xlink:title="modC">
<polygon fill="#add8e6" stroke="#000000" points="341.9443,-288 341.9443,-416 411.9443,-416 411.9443,-288 341.9443,-288"/>
<text text-anchor="middle" x="376.9443" y="-400.8" font-family="Times,serif" font-size="14.00" fill="#000000">modC</text>
</a>
</g>
</g>
<g id="clust3" class="cluster">
<title>cluster_VizModA_modB</title>
<g id="a_clust3"><a xlink:href="VizModB.dot.svg" xlink:title="modB">
<polygon fill="#add8e6" stroke="#000000" points="341.9443,-152 341.9443,-280 411.9443,-280 411.9443,-152 341.9443,-152"/>
<text text-anchor="middle" x="376.9443" y="-264.8" font-family="Times,serif" font-size="14.00" fill="#000000">modB</text>
</a>
</g>
</g>
<g id="clust5" class="cluster">
<title>cluster_VizModA_modB2</title>
<g id="a_clust5"><a xlink:href="VizModB.dot.svg" xlink:title="modB2">
<polygon fill="#add8e6" stroke="#000000" points="341.9443,-16 341.9443,-144 411.9443,-144 411.9443,-16 341.9443,-16"/>
<text text-anchor="middle" x="376.9443" y="-128.8" font-family="Times,serif" font-size="14.00" fill="#000000">modB2</text>
</a>
</g>
</g>
<!-- cluster_VizModA_io_in -->
<g id="node1" class="node">
<title>cluster_VizModA_io_in</title>
<polygon fill="#cccccc" stroke="#000000" points="106.9722,-262 52.9722,-262 52.9722,-226 106.9722,-226 106.9722,-262"/>
<text text-anchor="middle" x="79.9722" y="-239.8" font-family="Times,serif" font-size="14.00" fill="#000000">io_in</text>
</g>
<!-- op_bits_18 -->
<g id="node14" class="node">
<title>op_bits_18</title>
<polygon fill="#d8bfd8" stroke="transparent" points="203.9443,-313 203.9443,-363 305.9443,-363 305.9443,-313 203.9443,-313"/>
<polygon fill="none" stroke="#000000" points="203.9443,-337 203.9443,-363 250.9443,-363 250.9443,-337 203.9443,-337"/>
<text text-anchor="start" x="223.3975" y="-346.8" font-family="Times,serif" font-size="14.00" fill="#000000">●</text>
<polygon fill="none" stroke="#000000" points="250.9443,-313 250.9443,-363 287.9443,-363 287.9443,-313 250.9443,-313"/>
<text text-anchor="start" x="255.8306" y="-333.8" font-family="Times,serif" font-size="14.00" fill="#000000"> bits </text>
<polygon fill="none" stroke="#000000" points="287.9443,-313 287.9443,-363 305.9443,-363 305.9443,-313 287.9443,-313"/>
<text text-anchor="start" x="292.8975" y="-335.0441" font-family="Times,serif" font-size="14.00" fill="#000000">●</text>
<polygon fill="none" stroke="#000000" points="203.9443,-313 203.9443,-337 250.9443,-337 250.9443,-313 203.9443,-313"/>
<text text-anchor="start" x="208.7822" y="-320.8" font-family="Times,serif" font-size="14.00" fill="#000000">(15, 0)</text>
</g>
<!-- cluster_VizModA_io_in&#45;&gt;op_bits_18 -->
<g id="edge14" class="edge">
<title>cluster_VizModA_io_in&#45;&gt;op_bits_18:in1</title>
<path fill="none" stroke="#000000" d="M90.2977,-262.4638C107.6102,-290.8761 145.4023,-342.7422 193.7948,-349.31"/>
<polygon fill="#000000" stroke="#000000" points="193.7299,-352.8136 203.9443,-350 194.2048,-345.8297 193.7299,-352.8136"/>
</g>
<!-- op_bits_19 -->
<g id="node15" class="node">
<title>op_bits_19</title>
<polygon fill="#d8bfd8" stroke="transparent" points="203.9443,-207 203.9443,-257 305.9443,-257 305.9443,-207 203.9443,-207"/>
<polygon fill="none" stroke="#000000" points="203.9443,-231 203.9443,-257 250.9443,-257 250.9443,-231 203.9443,-231"/>
<text text-anchor="start" x="223.3975" y="-240.8" font-family="Times,serif" font-size="14.00" fill="#000000">●</text>
<polygon fill="none" stroke="#000000" points="250.9443,-207 250.9443,-257 287.9443,-257 287.9443,-207 250.9443,-207"/>
<text text-anchor="start" x="255.8306" y="-227.8" font-family="Times,serif" font-size="14.00" fill="#000000"> bits </text>
<polygon fill="none" stroke="#000000" points="287.9443,-207 287.9443,-257 305.9443,-257 305.9443,-207 287.9443,-207"/>
<text text-anchor="start" x="292.8975" y="-229.0441" font-family="Times,serif" font-size="14.00" fill="#000000">●</text>
<polygon fill="none" stroke="#000000" points="203.9443,-207 203.9443,-231 250.9443,-231 250.9443,-207 203.9443,-207"/>
<text text-anchor="start" x="208.7822" y="-214.8" font-family="Times,serif" font-size="14.00" fill="#000000">(15, 0)</text>
</g>
<!-- cluster_VizModA_io_in&#45;&gt;op_bits_19 -->
<g id="edge7" class="edge">
<title>cluster_VizModA_io_in&#45;&gt;op_bits_19:in1</title>
<path fill="none" stroke="#000000" d="M107.0581,-244C129.6227,-244 162.9188,-244 193.6427,-244"/>
<polygon fill="#000000" stroke="#000000" points="193.9444,-247.5001 203.9443,-244 193.9443,-240.5001 193.9444,-247.5001"/>
</g>
<!-- op_bits_20 -->
<g id="node16" class="node">
<title>op_bits_20</title>
<polygon fill="#d8bfd8" stroke="transparent" points="203.9443,-101 203.9443,-151 305.9443,-151 305.9443,-101 203.9443,-101"/>
<polygon fill="none" stroke="#000000" points="203.9443,-125 203.9443,-151 250.9443,-151 250.9443,-125 203.9443,-125"/>
<text text-anchor="start" x="223.3975" y="-134.8" font-family="Times,serif" font-size="14.00" fill="#000000">●</text>
<polygon fill="none" stroke="#000000" points="250.9443,-101 250.9443,-151 287.9443,-151 287.9443,-101 250.9443,-101"/>
<text text-anchor="start" x="255.8306" y="-121.8" font-family="Times,serif" font-size="14.00" fill="#000000"> bits </text>
<polygon fill="none" stroke="#000000" points="287.9443,-101 287.9443,-151 305.9443,-151 305.9443,-101 287.9443,-101"/>
<text text-anchor="start" x="292.8975" y="-123.0441" font-family="Times,serif" font-size="14.00" fill="#000000">●</text>
<polygon fill="none" stroke="#000000" points="203.9443,-101 203.9443,-125 250.9443,-125 250.9443,-101 203.9443,-101"/>
<text text-anchor="start" x="208.7822" y="-108.8" font-family="Times,serif" font-size="14.00" fill="#000000">(15, 0)</text>
</g>
<!-- cluster_VizModA_io_in&#45;&gt;op_bits_20 -->
<g id="edge2" class="edge">
<title>cluster_VizModA_io_in&#45;&gt;op_bits_20:in1</title>
<path fill="none" stroke="#000000" d="M90.2977,-225.5362C107.6102,-197.1239 145.4023,-145.2578 193.7948,-138.69"/>
<polygon fill="#000000" stroke="#000000" points="194.2048,-142.1703 203.9443,-138 193.7299,-135.1864 194.2048,-142.1703"/>
</g>
<!-- cluster_VizModA_io_out -->
<g id="node2" class="node">
<title>cluster_VizModA_io_out</title>
<polygon fill="#e0ffff" stroke="#000000" points="1077.9443,-85 1023.9443,-85 1023.9443,-49 1077.9443,-49 1077.9443,-85"/>
<text text-anchor="middle" x="1050.9443" y="-62.8" font-family="Times,serif" font-size="14.00" fill="#000000">io_out</text>
</g>
<!-- cluster_VizModA_modC_io_in -->
<g id="node3" class="node">
<title>cluster_VizModA_modC_io_in</title>
<polygon fill="#cccccc" stroke="#000000" points="403.9443,-386 349.9443,-386 349.9443,-350 403.9443,-350 403.9443,-386"/>
<text text-anchor="middle" x="376.9443" y="-363.8" font-family="Times,serif" font-size="14.00" fill="#000000">io_in</text>
</g>
<!-- cluster_VizModA_modC_io_out -->
<g id="node4" class="node">
<title>cluster_VizModA_modC_io_out</title>
<polygon fill="#e0ffff" stroke="#000000" points="403.9443,-332 349.9443,-332 349.9443,-296 403.9443,-296 403.9443,-332"/>
<text text-anchor="middle" x="376.9443" y="-309.8" font-family="Times,serif" font-size="14.00" fill="#000000">io_out</text>
</g>
<!-- op_add_14 -->
<g id="node10" class="node">
<title>op_add_14</title>
<polygon fill="#d8bfd8" stroke="transparent" points="447.9443,-165 447.9443,-217 520.9443,-217 520.9443,-165 447.9443,-165"/>
<polygon fill="none" stroke="#000000" points="448.4443,-191 448.4443,-217 466.4443,-217 466.4443,-191 448.4443,-191"/>
<text text-anchor="start" x="453.3975" y="-200.8" font-family="Times,serif" font-size="14.00" fill="#000000">●</text>
<polygon fill="none" stroke="#000000" points="466.4443,-165 466.4443,-217 503.4443,-217 503.4443,-165 466.4443,-165"/>
<text text-anchor="start" x="471.3374" y="-186.8" font-family="Times,serif" font-size="14.00" fill="#000000"> add </text>
<polygon fill="none" stroke="#000000" points="503.4443,-165 503.4443,-217 521.4443,-217 521.4443,-165 503.4443,-165"/>
<text text-anchor="start" x="508.3975" y="-188.0441" font-family="Times,serif" font-size="14.00" fill="#000000">●</text>
<polygon fill="none" stroke="#000000" points="448.4443,-165 448.4443,-191 466.4443,-191 466.4443,-165 448.4443,-165"/>
<text text-anchor="start" x="453.3975" y="-174.8" font-family="Times,serif" font-size="14.00" fill="#000000">●</text>
</g>
<!-- cluster_VizModA_modC_io_out&#45;&gt;op_add_14 -->
<g id="edge4" class="edge">
<title>cluster_VizModA_modC_io_out&#45;&gt;op_add_14:in1</title>
<path fill="none" stroke="#000000" d="M404.198,-296.7879C425.1798,-281.4275 451.4398,-256.8207 456.5575,-227.2228"/>
<polygon fill="#000000" stroke="#000000" points="460.0669,-227.2651 457.4443,-217 453.0931,-226.66 460.0669,-227.2651"/>
</g>
<!-- cluster_VizModA_modB_io_in -->
<g id="node5" class="node">
<title>cluster_VizModA_modB_io_in</title>
<polygon fill="#cccccc" stroke="#000000" points="403.9443,-250 349.9443,-250 349.9443,-214 403.9443,-214 403.9443,-250"/>
<text text-anchor="middle" x="376.9443" y="-227.8" font-family="Times,serif" font-size="14.00" fill="#000000">io_in</text>
</g>
<!-- cluster_VizModA_modB_io_out -->
<g id="node6" class="node">
<title>cluster_VizModA_modB_io_out</title>
<polygon fill="#e0ffff" stroke="#000000" points="403.9443,-196 349.9443,-196 349.9443,-160 403.9443,-160 403.9443,-196"/>
<text text-anchor="middle" x="376.9443" y="-173.8" font-family="Times,serif" font-size="14.00" fill="#000000">io_out</text>
</g>
<!-- cluster_VizModA_modB_io_out&#45;&gt;op_add_14 -->
<g id="edge11" class="edge">
<title>cluster_VizModA_modB_io_out&#45;&gt;op_add_14:in2</title>
<path fill="none" stroke="#000000" d="M404.106,-178C414.4355,-178 426.5477,-178 438.2829,-178"/>
<polygon fill="#000000" stroke="#000000" points="438.4444,-181.5001 448.4443,-178 438.4443,-174.5001 438.4444,-181.5001"/>
</g>
<!-- cluster_VizModA_modB2_io_in -->
<g id="node7" class="node">
<title>cluster_VizModA_modB2_io_in</title>
<polygon fill="#cccccc" stroke="#000000" points="403.9443,-114 349.9443,-114 349.9443,-78 403.9443,-78 403.9443,-114"/>
<text text-anchor="middle" x="376.9443" y="-91.8" font-family="Times,serif" font-size="14.00" fill="#000000">io_in</text>
</g>
<!-- cluster_VizModA_modB2_io_out -->
<g id="node8" class="node">
<title>cluster_VizModA_modB2_io_out</title>
<polygon fill="#e0ffff" stroke="#000000" points="403.9443,-60 349.9443,-60 349.9443,-24 403.9443,-24 403.9443,-60"/>
<text text-anchor="middle" x="376.9443" y="-37.8" font-family="Times,serif" font-size="14.00" fill="#000000">io_out</text>
</g>
<!-- op_add_16 -->
<g id="node12" class="node">
<title>op_add_16</title>
<polygon fill="#d8bfd8" stroke="transparent" points="784.9443,-53 784.9443,-105 857.9443,-105 857.9443,-53 784.9443,-53"/>
<polygon fill="none" stroke="#000000" points="785.4443,-79 785.4443,-105 803.4443,-105 803.4443,-79 785.4443,-79"/>
<text text-anchor="start" x="790.3975" y="-88.8" font-family="Times,serif" font-size="14.00" fill="#000000">●</text>
<polygon fill="none" stroke="#000000" points="803.4443,-53 803.4443,-105 840.4443,-105 840.4443,-53 803.4443,-53"/>
<text text-anchor="start" x="808.3374" y="-74.8" font-family="Times,serif" font-size="14.00" fill="#000000"> add </text>
<polygon fill="none" stroke="#000000" points="840.4443,-53 840.4443,-105 858.4443,-105 858.4443,-53 840.4443,-53"/>
<text text-anchor="start" x="845.3975" y="-76.0441" font-family="Times,serif" font-size="14.00" fill="#000000">●</text>
<polygon fill="none" stroke="#000000" points="785.4443,-53 785.4443,-79 803.4443,-79 803.4443,-53 785.4443,-53"/>
<text text-anchor="start" x="790.3975" y="-62.8" font-family="Times,serif" font-size="14.00" fill="#000000">●</text>
</g>
<!-- cluster_VizModA_modB2_io_out&#45;&gt;op_add_16 -->
<g id="edge6" class="edge">
<title>cluster_VizModA_modB2_io_out&#45;&gt;op_add_16:in2</title>
<path fill="none" stroke="#000000" d="M404.1613,-44.7065C468.1778,-50.836 633.5854,-65.3009 775.2847,-65.9756"/>
<polygon fill="#000000" stroke="#000000" points="775.4359,-69.4758 785.4443,-66 775.4528,-62.4759 775.4359,-69.4758"/>
</g>
<!-- cluster_VizModA__T -->
<g id="node9" class="node">
<title>cluster_VizModA__T</title>
<polygon fill="none" stroke="#000000" points="618.9443,-198 564.9443,-198 564.9443,-162 618.9443,-162 618.9443,-198"/>
<text text-anchor="middle" x="591.9443" y="-175.8" font-family="Times,serif" font-size="14.00" fill="#000000">_T</text>
</g>
<!-- op_tail_17 -->
<g id="node13" class="node">
<title>op_tail_17</title>
<polygon fill="#d8bfd8" stroke="transparent" points="662.9443,-132 662.9443,-182 732.9443,-182 732.9443,-132 662.9443,-132"/>
<polygon fill="none" stroke="#000000" points="662.9443,-156 662.9443,-182 680.9443,-182 680.9443,-156 662.9443,-156"/>
<text text-anchor="start" x="667.8975" y="-165.8" font-family="Times,serif" font-size="14.00" fill="#000000">●</text>
<polygon fill="none" stroke="#000000" points="680.9443,-132 680.9443,-182 714.9443,-182 714.9443,-132 680.9443,-132"/>
<text text-anchor="start" x="685.5029" y="-152.8" font-family="Times,serif" font-size="14.00" fill="#000000"> tail </text>
<polygon fill="none" stroke="#000000" points="714.9443,-132 714.9443,-182 732.9443,-182 732.9443,-132 714.9443,-132"/>
<text text-anchor="start" x="719.8975" y="-154.0441" font-family="Times,serif" font-size="14.00" fill="#000000">●</text>
<polygon fill="none" stroke="#000000" points="662.9443,-132 662.9443,-156 680.9443,-156 680.9443,-132 662.9443,-132"/>
<text text-anchor="start" x="668.4443" y="-139.8" font-family="Times,serif" font-size="14.00" fill="#000000">1</text>
</g>
<!-- cluster_VizModA__T&#45;&gt;op_tail_17 -->
<g id="edge12" class="edge">
<title>cluster_VizModA__T&#45;&gt;op_tail_17:in1</title>
<path fill="none" stroke="#000000" d="M619.1017,-173.7928C629.2834,-171.863 641.212,-170.0513 652.8468,-169.3294"/>
<polygon fill="#000000" stroke="#000000" points="653.0638,-172.8243 662.9443,-169 652.8355,-165.828 653.0638,-172.8243"/>
</g>
<!-- op_add_14&#45;&gt;cluster_VizModA__T -->
<g id="edge10" class="edge">
<title>op_add_14:out&#45;&gt;cluster_VizModA__T</title>
<path fill="none" stroke="#000000" d="M521.4443,-191C532.3339,-191 544.0577,-189.703 554.7587,-187.9997"/>
<polygon fill="#000000" stroke="#000000" points="555.3968,-191.4413 564.6446,-186.2712 554.1912,-184.5459 555.3968,-191.4413"/>
</g>
<!-- op_tail_15 -->
<g id="node11" class="node">
<title>op_tail_15</title>
<polygon fill="#d8bfd8" stroke="transparent" points="909.9443,-42 909.9443,-92 979.9443,-92 979.9443,-42 909.9443,-42"/>
<polygon fill="none" stroke="#000000" points="909.9443,-66 909.9443,-92 927.9443,-92 927.9443,-66 909.9443,-66"/>
<text text-anchor="start" x="914.8975" y="-75.8" font-family="Times,serif" font-size="14.00" fill="#000000">●</text>
<polygon fill="none" stroke="#000000" points="927.9443,-42 927.9443,-92 961.9443,-92 961.9443,-42 927.9443,-42"/>
<text text-anchor="start" x="932.5029" y="-62.8" font-family="Times,serif" font-size="14.00" fill="#000000"> tail </text>
<polygon fill="none" stroke="#000000" points="961.9443,-42 961.9443,-92 979.9443,-92 979.9443,-42 961.9443,-42"/>
<text text-anchor="start" x="966.8975" y="-64.0441" font-family="Times,serif" font-size="14.00" fill="#000000">●</text>
<polygon fill="none" stroke="#000000" points="909.9443,-42 909.9443,-66 927.9443,-66 927.9443,-42 909.9443,-42"/>
<text text-anchor="start" x="915.4443" y="-49.8" font-family="Times,serif" font-size="14.00" fill="#000000">1</text>
</g>
<!-- op_tail_15&#45;&gt;cluster_VizModA_io_out -->
<g id="edge1" class="edge">
<title>op_tail_15:out&#45;&gt;cluster_VizModA_io_out</title>
<path fill="none" stroke="#000000" d="M979.9443,-67C990.8734,-67 1002.7488,-67 1013.604,-67"/>
<polygon fill="#000000" stroke="#000000" points="1013.6348,-70.5001 1023.6348,-67 1013.6348,-63.5001 1013.6348,-70.5001"/>
</g>
<!-- op_add_16&#45;&gt;op_tail_15 -->
<g id="edge8" class="edge">
<title>op_add_16:out&#45;&gt;op_tail_15:in1</title>
<path fill="none" stroke="#000000" d="M858.4443,-79C877.578,-79 884.7158,-79 899.9133,-79"/>
<polygon fill="#000000" stroke="#000000" points="899.9444,-82.5001 909.9443,-79 899.9443,-75.5001 899.9444,-82.5001"/>
</g>
<!-- op_tail_17&#45;&gt;op_add_16 -->
<g id="edge9" class="edge">
<title>op_tail_17:out&#45;&gt;op_add_16:in1</title>
<path fill="none" stroke="#000000" d="M723.9443,-132C723.9443,-102.8328 747.0648,-93.8401 775.281,-92.2676"/>
<polygon fill="#000000" stroke="#000000" points="775.54,-95.7621 785.4443,-92 775.3556,-88.7646 775.54,-95.7621"/>
</g>
<!-- op_bits_18&#45;&gt;cluster_VizModA_modC_io_in -->
<g id="edge13" class="edge">
<title>op_bits_18:out&#45;&gt;cluster_VizModA_modC_io_in</title>
<path fill="none" stroke="#000000" d="M305.9443,-338C317.7431,-338 329.8369,-341.5588 340.6227,-346.2249"/>
<polygon fill="#000000" stroke="#000000" points="339.1898,-349.419 349.7242,-350.5489 342.1937,-343.0963 339.1898,-349.419"/>
</g>
<!-- op_bits_19&#45;&gt;cluster_VizModA_modB_io_in -->
<g id="edge3" class="edge">
<title>op_bits_19:out&#45;&gt;cluster_VizModA_modB_io_in</title>
<path fill="none" stroke="#000000" d="M305.9443,-232C316.8734,-232 328.7488,-232 339.604,-232"/>
<polygon fill="#000000" stroke="#000000" points="339.6348,-235.5001 349.6348,-232 339.6348,-228.5001 339.6348,-235.5001"/>
</g>
<!-- op_bits_20&#45;&gt;cluster_VizModA_modB2_io_in -->
<g id="edge5" class="edge">
<title>op_bits_20:out&#45;&gt;cluster_VizModA_modB2_io_in</title>
<path fill="none" stroke="#000000" d="M305.9443,-126C317.7431,-126 329.8369,-122.4412 340.6227,-117.7751"/>
<polygon fill="#000000" stroke="#000000" points="342.1937,-120.9037 349.7242,-113.4511 339.1898,-114.581 342.1937,-120.9037"/>
</g>
<!-- Modules Only View Here -->
<g id="node17" class="node">
<title>Modules Only View Here</title>
<g id="a_node17"><a xlink:href="TopLevel.dot.svg" xlink:title="Modules Only View Here">
<polygon fill="none" stroke="#000000" points="159.9165,-490 .0278,-490 .0278,-454 159.9165,-454 159.9165,-490"/>
<text text-anchor="middle" x="79.9722" y="-467.8" font-family="Times,serif" font-size="14.00" fill="#000000">Modules Only View Here</text>
</a>
</g>
</g>
</g>
</svg>
